<?xml version="1.0" encoding="UTF-8"?><svg xmlns="http://www.w3.org/2000/svg" viewBox="0 0 512.36 507.2"><defs><style>.cls-1{fill:#fc83b3;}.cls-2{fill:#fdee86;}.cls-3{fill:#9d7efd;}.cls-4{fill:#a0cef9;}.cls-5{fill:#212a67;}.cls-6{fill:#3269bb;}.cls-7{fill:#f0f0f5;}.cls-8{fill:#fff;}.cls-9{fill:#3b91fb;}.cls-10{fill:#0e1a48;}.cls-11{fill:#6599fa;}.cls-12{fill:#d274f6;}.cls-13{fill:#57d3ee;}.cls-14{fill:#c8defa;}.cls-15{fill:#090c21;}.cls-16{fill:#3b4ba8;}.cls-17{fill:#fec982;}</style></defs><g id="Layer_2"><rect class="cls-8" x="61.77" y="101.92" width="348.23" height="281.53"/></g><g id="Layer_1"><path class="cls-1" d="M75.29,68.18c-13.77,3.49-16.28,10.17-21.06,22.91-4.78-13.21-7.18-18.26-21.76-23.24,16.47-6.95,16.52-9.2,21.82-25.28,1.49,5.34,3.24,9.8,5.74,14.47,3.99,7.49,10.41,6.89,15.27,11.14Z"/><path class="cls-4" d="M86.11,466.99c-5.38,3.81-13.18,2.25-16.89-2.17-4.96-5.92-4.91-12.81-.32-18.94s15.64-6.63,20.11.17,4.07,16-2.91,20.94Z"/><path class="cls-13" d="M470.52,427.72c-13.79,3.75-14.38,7.23-18.18,19.16-1.54-2.63-2.08-5.27-3.14-7.87-4.88-11.98-18.84-9.98-15.9-12.83,2.41-2.33,15.28-2.2,18.26-21.38,2.09,2.46,2.18,4.97,3.07,7.42,5.07,14,17.68,10.69,15.89,15.5Z"/><path class="cls-15" d="M154.73,38.55c.83.28.66.85-.19,1.13l-27.58,16.75-30.22,18.81-32.01,19.61-26.59,16.05c-2.14,1.29-3.61,2.84-5.47,4.33-19.99,16-27.79,35.92-27.75,61.71l.26,159.59c.02,11.47,3.76,21.21,8.48,31.1,3.53,7.4,7.13,9.15,8.67,13.81-5.96-4.91-9.99-11.73-12.83-19.36-2.69-7.24-5.87-14.57-5.87-22.97l.04-173.37c0-9.4,4.11-18.2,7.47-26s7.68-12.88,13.12-18.43c5.75-5.87,10.92-11.08,18.7-14.76,1.9-.9,17.36-10.05,19.16-11.68,3.25-2.96,7.1-4.29,10.67-6.48l21.51-13.21,31.75-19.57c9.68-5.96,19.1-11.64,28.68-17.03Z"/><path class="cls-11" d="M418.82,70.83c-1.65-7.65-5.69-11.47-13.92-14.36,8.42-2.98,12.06-6.86,13.42-15.45,2.4,8.26,5.54,12.92,14.07,15.59-7.81,2.75-12.15,6.22-13.56,14.21Z"/><path class="cls-13" d="M465.78,107.2c-3.34-1.63.88-5.9-7.95-11.66-1.79-1.17-2.96-2.02-5.42-3.28,8.02-1.93,11.14-7.38,13.56-15.42.64,8.53,4.58,13.15,12.97,15.61-7.84,2.14-12.19,7.36-13.17,14.75Z"/><path class="cls-11" d="M499.5,327.12c-5.7-9-1.97-7.81-13.31-12.72,10.7-6.01,7.14-4.64,13.02-15.12,2.6,8.1,4.66,12.15,13.15,15.29-6.96,1.36-11.27,5.01-12.86,12.55Z"/><path class="cls-13" d="M398.81,466.89c-3.26-10.38-3.72-9.52-12.28-13.83,10.47-5.31,8-4.12,12-14.78,5.6,9.25.81,8.82,12.35,14.43l-6.97,4.31c-3.14,2.3-3.64,5.75-5.09,9.88Z"/><path class="cls-12" d="M14.54,113.11c-1.4,3.43-4.23,5-7.42,4.79-3-.2-5.24-2.26-6.41-5.48-.95-2.61-1.11-5.51.56-7.63,3.29-4.2,10.6-2.99,13.07.89,1.45,2.28,1.35,4.62.2,7.44Z"/><path class="cls-17" d="M93.32,55.39c-1.55-4.63-3.87-8.08-9.42-9.72,1.35-2.55,4.36-2.15,6.01-4.16,1.98-2.4,1.24-5.47,3.7-8.14.78,5.92,3.19,9.77,9.44,11.57-5.31,2.34-7.76,4.56-9.73,10.44Z"/><path class="cls-13" d="M485.79,390.5c-1.96,2.45-6.2,2.12-8.55.5s-3.08-4.7-1.93-7.91c.82-2.28,3.42-4.83,6.76-4.01,2.33.57,4.4,2.39,4.83,4.03.52,2.02.63,5.23-1.11,7.4Z"/><path class="cls-11" d="M138.41,25.84c-2.07,2.98-6.13,2.55-8.48.39-2.1-1.93-2.31-5.35-.34-8.05,1.05-1.43,2.09-2.42,3.58-2.54,1.7-.14,2.72.7,4.01,2.06,1.95,2.05,3.24,5.25,1.23,8.14Z"/><circle class="cls-2" cx="48.02" cy="433.48" r="5.48"/><path class="cls-11" d="M354.67,466.23c2.46-1.46,5.35.12,6.39,2.15,1.36,2.67.59,4.4-2.12,6.19-2.36,1.56-3.81.73-5.75-1.5-1.55-1.78-1.36-5.16,1.48-6.84Z"/><path class="cls-10" d="M345.53,51.56c-.4.04-.94-.39-1.69.47,3.24,1.05,5.63,3.61,8.68,5.46l29.18,17.71,29.97,18.2c4.24,2.58,7.84,5.37,12.24,7.78,6.75,3.7,13.29,7.51,19.79,11.72,3.23,2.09,5.92,5.13,8.91,7.53,5.6,4.49,9.37,10.17,12.46,16.47,2.1,4.29,4.57,8.29,5.56,12.98l3.48,16.48-.36,172.46c-.02,11.62-8.6,31.29-17.2,40.71-.53.58-.51,1.43-.64,1.9-.16.28-.46.48-.68.71-.77.18-2.08.49-2.71,1.47-3.33,5.13-8.01,8.27-13.1,11.48-6.79,4.28-13.28,8.41-20.18,12.57l-30.53,18.44-9.51,6.22-20.68,12.01c-5.56,3.23-10.49,6.91-15.98,10.23-5.87,3.55-11.55,6.88-17.36,10.47l-31.79,19.65c-8.01,4.95-15.7,9.69-24.25,13.51-6.42,2.87-12.93,4.07-19.47,5.98-9.3,2.72-16.18,1.34-24.8-.22-16.15-2.92-28.62-10.61-42.39-19.27l-31.16-19.6-28.73-17.88c-3.22-2.01-5.98-4.28-9.28-6.26-8.11-4.87-15.97-9.42-24.03-14.44l-30.75-19.15-6.89-4.58c-7.44-4.95-15.56-8.54-22.22-14.71-2.24-2.08-3.57-5.11-6.42-5.93-.28-.08-.46-.5-.68-.69-1.54-4.66-5.14-6.41-8.67-13.81-4.72-9.9-8.46-19.63-8.48-31.1l-.26-159.59c-.04-25.8,7.76-45.71,27.75-61.71,1.86-1.49,3.32-3.03,5.47-4.33l26.59-16.05,32.01-19.61,30.22-18.81,27.58-16.75c.86-.28,1.02-.85.19-1.13.57-.32.96-.9,1.72-.91.7,0,1.78.34,2.43-.38.35-.39-.01-1.42-.8-1.25l30.1-18.88c7.16-4.49,13.92-8.79,21.76-11.97C222.66,0,236.07-.94,249.8.81c11.07,1.41,21.03,5.64,30.64,11.01,3.92,2.19,7.19,4.74,10.99,7.02l29.12,17.54,24.99,15.17ZM35.14,126.21c-.21,3.56-4.77,4.79-6.55,7.64l-2.28,3.65c-2.06,1.19-2.86,3.61-4.03,5.67-5.69,9.94-7.52,20.41-7.51,31.16l.12,159.52c0,8.3,2.24,15.92,4.88,23.01-2.98.28,2.91,8.03,3.05,8.3,2.1,4.21,4.74,7.59,7.99,10.91.6.61,5.12,7.17,7.74,7.81,2.37.59,3.15,3.51,4.6,4.23,1.3.64,8.79,5.12,11.11,6.54l28.34,17.32,10.85,6.86c2.65,1.68,6.03,2.77,8.61,4.64l10.02,7.27c1.11.81,24.93,14.22,27,16.28,1.28,1.27,3.6,2.87,5.24,3.86l16.19,9.76c3.02,1.82,5.44,2.89,8.08,5.24,4.44,3.96,10.49,5.75,15.21,9.35,3.03,2.31,6.31,3.88,9.39,6.02l9.63,6.66c1.87,1.29,4.02,1.68,6.21,2.87,3.96,2.16,17.8,5.66,19.39,5.59,6.04-.27,11.42-.43,17.36.01,4.03.3,8.07-2.92,12.13-2.91,3.26,0,11.5-3.9,13.16-5.12,8.82-6.45,17.96-11.91,27.62-17.06,1.87-1,4.38-2.55,6.01-3.76,10.53-7.8,13.34-8.6,24.18-15.17l9.31-5.64c2.06-1.25,3.45-2.76,5.7-4.07l23.08-13.49c1.54-.9,2.4-1.64,3.99-2.61l12.22-7.49c2.31-1.42,4.69-2.97,7.03-4.42,4.92-3.06,10.29-5.22,14.81-9,3.1-2.59,6.5-3.84,10.01-5.69,2.93-1.54,5.41-3.68,8.41-5.37l5.19-2.91c2.79-1.56,4.58-3.51,6.98-5.31,7.43-5.59,14.64-11.05,19.12-19.54,4.9-9.27,10.79-18.6,10.81-30.02l.25-168.07c0-6.16-2.26-11.58-3.36-17.2-.55-2.79-2.6-5.17-3.68-7.8-4-9.82-11.35-17.23-20.11-23.28-3.78-2.6-7.58-4.51-11.16-7.6-2.41-2.07-5.71-2.99-8.46-4.65l-20.93-12.67-33.34-20.53c-4.62-2.85-8.89-5.77-13.5-7.88-1.33-.61-2.7-.65-4.09-1.46.09-.74-.34-1.59-1.29-2.15l-7.07-4.21c-2.16-1.29-3.53-2.5-5.52-3.66l-23.35-13.65c-2.73-1.6-6.04-3.42-8.12-5.57-2.56-2.64-10.93-6.08-12.46-7.2-3.23-2.36-5.94-4.51-9.82-5.96-4.43-1.65-7.73-5.49-11.95-7.42-3.54-1.62-7.57-2.03-10.93-3.79-3.02-1.58-9.38-1.74-9.89-1.83-11.77-2.15-29.05.68-39.44,7.14l-29.76,18.5-3.57,2.48c-3.99,2.78-7.85,4.98-12.02,7.43l-10.24,6c-7.14,4.18-6.91,4.57-12.6,8.2l-7.95,5.09c-1.89,1.21-4.5,2.18-6.41,3.38l-8.93,5.59c-3.62,2.27-6.73,4.59-10.39,6.82-7.72,4.7-15.62,8.69-22.89,13.75-2.68,1.86-5.08,3.88-8.12,5.22-4.75,2.09-8.54,5.55-13.25,7.97-8.8,4.53-24.6,14.73-30.77,22.21,1.77-1.14,3.3-2.51,4.72-3.77Z"/><path class="cls-15" d="M345.53,51.56c1.36.83,2.55,1.57,4.44,2.31,2.72,1.06,4.43,3.64,7,5.05,8.85,4.85,17.3,9.82,25.81,15.14,1.71,1.07,2.82,2.51,4.76,3.55,9.7,5.21,18.89,10.88,28.28,16.58,2.46,1.49,4.27,3.29,6.88,4.77l4.7,2.68c5.14,2.92,10.08,6.15,15.24,9.01,3.48,1.93,5.71,4.69,8.63,7.03,2.72,2.17,5.06,3.8,7.24,6.85,2.46,3.44,5.37,6.56,7.33,10.59,2.58,5.31,5.78,10.18,6.66,16.26.8,5.55,3.1,10.79,3.09,16.8l-.24,168.47c-.01,10-3.41,19.53-7.53,27.71l-2.58,5.12-5.02,8.02c-1.05,1.68-3.41,2.4-4.31,3.94.13-.47.11-1.32.64-1.9,8.61-9.42,17.18-29.08,17.2-40.71l.36-172.46-3.48-16.48c-.99-4.69-3.46-8.69-5.56-12.98-3.09-6.3-6.85-11.99-12.46-16.47-2.99-2.39-5.68-5.43-8.91-7.53-6.49-4.21-13.04-8.03-19.79-11.72-4.4-2.41-8-5.2-12.24-7.78l-29.97-18.2-29.18-17.71c-3.05-1.85-5.44-4.41-8.68-5.46.75-.85,1.29-.42,1.69-.47Z"/><path class="cls-15" d="M455.23,382.14c.44,1.88-1.51,2.21-2.57,3.34-10.3,10.89-18.8,13.67-30.64,21.86-8.56,5.93-17.83,10.79-26.98,16.14-1.89,1.1-3.16,2.22-4.91,3.28l-32.66,19.83-28.16,17.43c-4.3,2.66-8.24,4.96-12.46,7.62l-5.42,3.41c-5,3.15-10.62,5.62-15.22,9.21-2.21,1.73-4.06,2.88-6.43,4.25l-15.02,8.7c-4.91,2.85-10.64,4.09-16.04,6.22-11.69,4.6-29.67,5.07-41.01.85-8.88-3.3-17.26-7.11-25.46-12.15-3.72-2.29-7.97-3.92-11.12-6.76-2.69-2.42-5.57-3.73-8.61-5.62l-12.22-7.61c-4.13-2.57-8.95-4.04-12.45-7.77-2.82-3-7.43-3.8-10.4-6.6-1.7-1.61-3.34-2.09-5.29-3.11-5.14-2.7-9.7-6.02-14.63-9.07l-30.73-19.02-32.3-20.29c-7.78-4.89-30.15-17.24-31.49-24.18,2.85.81,4.18,3.84,6.42,5.93,6.66,6.18,14.78,9.77,22.22,14.71l6.89,4.58,30.75,19.15c8.06,5.02,15.92,9.58,24.03,14.44,3.3,1.98,6.05,4.25,9.28,6.26l28.73,17.88,31.16,19.6c13.76,8.66,26.24,16.34,42.39,19.27,8.62,1.56,15.49,2.95,24.8.22,6.53-1.91,13.05-3.11,19.47-5.98,8.55-3.83,16.24-8.56,24.25-13.51l31.79-19.65c5.81-3.59,11.49-6.92,17.36-10.47,5.49-3.32,10.42-7,15.98-10.23l20.68-12.01,9.51-6.22,30.53-18.44c6.9-4.17,13.39-8.29,20.18-12.57,5.09-3.21,9.77-6.34,13.1-11.48.63-.98,1.94-1.28,2.71-1.47Z"/><path class="cls-15" d="M158.09,36c.78-.17,1.15.86.8,1.25-.66.73-1.73.38-2.43.38-.07-.55.09-1.11.55-1.4.31-.2.83-.08,1.09-.24Z"/><path class="cls-2" d="M62.38,188.97c.79.37,1.48.97,2.42.96.21.24.51.66.8.77-2.78,7.3-4.4,14.98-4.58,23.37-.44,20.21-.81,40.28.14,60.47.36,7.58.51,14.79.81,22.14l.54,13.52.94,11.26c.93,11.13,2.33,21.86,5.97,32.34,2.43,7,7.7,13.16,7.11,14.46-.44.96.23,2.57.53,3.44-.66,3.27-1.55,7.51-3.32,10.52-2.86,4.88-6.13,9.86-7.45,15.4l-1.5.16c-.09-.42-.42-.7-.82-.82h-2.46c-5.29-3.26-10.96-6.02-16.26-9.97-7.02-5.23-14.3-10.21-18.85-17.85-2.45-4.12-5.09-8.13-6.64-12.29-2.64-7.09-4.88-14.71-4.88-23.01l-.12-159.52c.35-.12.9.17.9.97l.06,141.52c5.16-8.35,11.58-15.44,17.53-23.25l11.73-15.41c4.22-5.54,8.55-10.45,12.47-16.81,1.61.93.02,2.61,1.28,3.85l.73-43.77.73-13.2c.67-12.06,6.24-17.37,1.97-18.33-.92-.4-.55-.89.21-.93ZM45.77,335.75c2.63-1.8,1.52-4.91.41-6.56-1.29-1.93-4.24-2.77-5.9-1.07s-1.47,4.71-.74,6.17c1.08,2.18,3.93,3.04,6.24,1.46ZM58.98,372.81c0-1.38-1.12-2.5-2.5-2.5s-2.5,1.12-2.5,2.5,1.12,2.5,2.5,2.5,2.5-1.12,2.5-2.5Z"/><path class="cls-17" d="M62.32,138.32c-.2,1.14-1.13,1.93-2.05,2.7-12.71,10.6-14.38,28.02-4.88,41.15,2.12,2.93,3.63,5.21,6.99,6.8-.76.04-1.13.53-.21.93,4.26.96-1.31,6.27-1.97,18.33l-.73,13.2-.73,43.77c-1.27-1.24.33-2.92-1.28-3.85-3.92,6.37-8.26,11.28-12.47,16.81l-11.73,15.41c-5.95,7.81-12.36,14.91-17.53,23.25l-.06-141.52c0-.8-.55-1.09-.9-.97,0-10.75,1.83-21.22,7.51-31.16,1.18-2.06,1.98-4.48,4.03-5.67-5.33,8.52-9.16,18.04-10,28.88,2.91.83,5.65-.55,8.41-1.19,2.34-.55,4.29,1.82,6.53,1.83l16.33.02c.14-11.75,5.35-22.73,14.74-28.71ZM45.97,199.68c0-2.37-1.92-4.29-4.29-4.29s-4.29,1.92-4.29,4.29,1.92,4.29,4.29,4.29,4.29-1.92,4.29-4.29ZM50.57,246.15c-8-2.44-12.17-7.61-13.63-15.89-1.36,8.44-5.67,13.56-14.15,15.93,7.56,2.28,12.16,7.48,14.04,15.29,4.26-9.3,3.95-11.76,13.73-15.32Z"/><path class="cls-1" d="M151.48,78.62c-.12,1.03-.63,1.95-1.56,2.42-.16-.1-.9.04-1.3.23-.15.07-.03.25.21.51-.68,1.12-2.03,1.23-3.18,2.25,8.71,3.3,5.33,9,8.3,8.48.26,1.5-1.42,3.22-.39,4.95.79,1.33,2.87,1.45,4.4,2.58,1.7,1.26.7,4.23,1.55,6.11-11.12.45-21.47,1.95-32.51,3.74.19.93,1.01.63,1.62.61-5.73.74-34.89,10.42-42.03,13.65-6.45,2.92-13.07,5.52-18.34,10.25-2.04,1.83-4.06,2.74-5.93,3.93-9.39,5.98-14.61,16.96-14.74,28.71l-16.33-.02c-2.24,0-4.2-2.37-6.53-1.83-2.75.64-5.5,2.02-8.41,1.19.83-10.84,4.67-20.36,10-28.88l2.28-3.65c1.78-2.85,6.34-4.08,6.55-7.64,4.86-4.33,10.28-7.73,16.13-11.28l33.54-20.32c5.19-3.14,9.99-6.34,15.17-8.68,6.57-2.97,12.71-7.21,19.19-11.11l31.28-18.79c1.4,8.93-2.27,18.87,1.05,22.59Z"/><path class="cls-11" d="M347.17,65.64c1.4.81,2.76.85,4.09,1.46-.12,1.59,1.91,2.4,3.38,3.09,3.83,1.79,6.5,4.37,9.97,6.45l30.73,18.38c4.54,2.71,8.69,5.48,13.28,8.14l15,8.69c2.81,1.63,5.16,4.22,8.14,5.7,11.75,5.82,20.41,15.18,25.9,26.49v.82l-7.97-11.93c-4.46-6.68-12.06-10.94-19.18-14.85-2.8-1.54-4.78-3.42-7.31-4.96l-20.93-12.67c-3.17-1.92-6.67-2.97-9.41-5.6-2.23-2.14-5.49-2.83-7.94-4.79-2.75-2.21-6.03-3.99-9.29-5.31-9.14-3.7-3.3-4.07-15.6-3.75-1.71,7.52.04,16.4-3.48,22.25,6.06,1.44,20.24,7.57,24.39,10.37-1.89-1.28,13.07,9.2,7.15,5.88-3.37-1.56-6.25-3.8-9.67-5.84-11.3-6.73-23.79-9.77-36.14-12.88,1.14-1.79-12.99-3.1-13.36-3.11l-25.78-.52c.01-2.93,1.89-4.51,3.51-6.74,9.01-12.4,14.42-22.87,24.16-33.94,1.18,1.17,13.26,7.36,16.37,9.18Z"/><path class="cls-15" d="M347.17,65.64c-3.11-1.81-15.19-8-16.37-9.18-3.05-3.02-15.89-10.72-20.46-12.28-1.95-2.95-6.26-3.5-9.03-5.77-1.84-1.51-3.37-2.99-5.54-4.24l-22.9-13.19c-18.33-10.56-41.04-13.44-60.1-4.22-5.84,2.82-26.93,15.89-33.61,19.98l-30.53,18.69c-3.93,2.41-7.22,5.04-11.4,7.12-.43.21-19.94,12.03-19.47,11.65-6.42,5.3-12.18,6.94-17.78,11.73-5.18,2.35-9.98,5.54-15.17,8.68l-33.54,20.32c-5.85,3.55-11.27,6.95-16.13,11.28-1.41,1.26-2.94,2.63-4.72,3.77,6.17-7.48,21.97-17.68,30.77-22.21,4.7-2.42,8.5-5.89,13.25-7.97,3.04-1.34,5.44-3.35,8.12-5.22,7.27-5.06,15.17-9.05,22.89-13.75,3.66-2.23,6.77-4.55,10.39-6.82l8.93-5.59c1.92-1.2,4.53-2.18,6.41-3.38l7.95-5.09c5.68-3.63,5.46-4.02,12.6-8.2l10.24-6c4.17-2.45,8.03-4.65,12.02-7.43l3.57-2.48,29.76-18.5c10.39-6.46,27.66-9.29,39.44-7.14.51.09,6.87.25,9.89,1.83,3.36,1.76,7.39,2.16,10.93,3.79,4.22,1.93,7.52,5.77,11.95,7.42,3.89,1.45,6.59,3.6,9.82,5.96,1.54,1.12,9.9,4.56,12.46,7.2,2.08,2.15,5.39,3.98,8.12,5.57l23.35,13.65c1.98,1.16,3.36,2.38,5.52,3.66l7.07,4.21c.95.56,1.38,1.41,1.29,2.15Z"/><path class="cls-15" d="M19.75,356.86c1.55,4.16,4.18,8.17,6.64,12.29,4.55,7.64,11.82,12.62,18.85,17.85,5.3,3.95,10.97,6.71,16.26,9.97l7.06,4.35c3.5,2.16,6.3,4.49,9.72,6.58l20.87,12.8c2.8,1.72,6.35,2.83,8.85,4.95,1.89,2.68,4.87,4.21,8.19,5.75,2.09.97,21.2,12.91,23.84,14.91,8.52,6.44,18.04,10.98,27.09,16.89,5.51,3.6,10.47,7.77,16.34,9.88,0,1.23,2.57,2.06,3.86,2.79l9.43,5.34c1.83,1.03,3.31,2.85,5.09,3.95,9.49,5.87,20.58,9.25,31.55,9.2,4.13,2.25,8.82.14,13.16-.15,6.19-.41,11.94-2.11,18.01-4.65l6.06-2.54c2.2-.92,2.77-2.18,4.42-3.19l31.62-19.34,28.34-17.53c3.61-2.23,6.69-4.69,10.44-6.75,5.39-2.97,10.4-6.65,15.98-9.22,3.13-1.44,5.04-3.48,7.95-5.22l30.68-18.37c9.99-5.98,19.51-12,29.57-17.86,1.81-1.05,2.8-1.98,4.31-3.26,8.52-7.2,12.09-6.9,19.14-18.68,6.17-10.31,11.15-21.71,11.15-33.67.1.11,1.03-.31,1.01-1-1-54.77,1.03-109.34-1.01-163.52-.03-.9.12-1.99-.82-2.46,0-.54-.05-1.1,0-1.64.64-7.61-2.57-14.77-5.73-21.28-5.49-11.31-14.15-20.67-25.9-26.49-2.99-1.48-5.33-4.07-8.14-5.7l-15-8.69c-4.59-2.66-8.74-5.43-13.28-8.14l-30.73-18.38c-3.47-2.07-6.14-4.66-9.97-6.45-1.47-.69-3.5-1.5-3.38-3.09,4.61,2.11,8.87,5.04,13.5,7.88l33.34,20.53,20.93,12.67c2.75,1.66,6.05,2.58,8.46,4.65,3.59,3.09,7.39,5,11.16,7.6,8.76,6.04,16.1,13.46,20.11,23.28,1.08,2.64,3.13,5.02,3.68,7.8,1.1,5.62,3.37,11.05,3.36,17.2l-.25,168.07c-.02,11.42-5.91,20.74-10.81,30.02-4.48,8.49-11.7,13.95-19.12,19.54-2.4,1.8-4.19,3.75-6.98,5.31l-5.19,2.91c-3.01,1.69-5.48,3.83-8.41,5.37-3.51,1.85-6.91,3.1-10.01,5.69-4.52,3.78-9.9,5.94-14.81,9-2.33,1.45-4.71,3.01-7.03,4.42l-12.22,7.49c-1.59.97-2.45,1.71-3.99,2.61l-23.08,13.49c-2.25,1.32-3.65,2.83-5.7,4.07l-9.31,5.64c-10.85,6.57-13.66,7.37-24.18,15.17-1.63,1.21-4.13,2.76-6.01,3.76-9.66,5.15-18.8,10.61-27.62,17.06-1.66,1.22-9.9,5.12-13.16,5.12-4.06,0-8.1,3.21-12.13,2.91-5.94-.44-11.32-.28-17.36-.01-1.59.07-15.44-3.43-19.39-5.59-2.19-1.19-4.34-1.58-6.21-2.87l-9.63-6.66c-3.09-2.14-6.36-3.7-9.39-6.02-4.72-3.61-10.78-5.39-15.21-9.35-2.64-2.35-5.06-3.42-8.08-5.24l-16.19-9.76c-1.64-.99-3.97-2.59-5.24-3.86-2.07-2.05-25.88-15.47-27-16.28l-10.02-7.27c-2.58-1.87-5.96-2.97-8.61-4.64l-10.85-6.86-28.34-17.32c-2.32-1.42-9.81-5.9-11.11-6.54-1.45-.71-2.23-3.64-4.6-4.23-2.62-.65-7.14-7.2-7.74-7.81-3.25-3.33-5.89-6.7-7.99-10.91-.13-.27-6.03-8.02-3.05-8.3Z"/><path class="cls-13" d="M103.99,386.47c-.21,2.82,3.39,3.48,5.92,3.74,2.69.27,4.27,2.61,6.62,3.59.82,10.82-6.72,19.01-11.66,28.59l4.93,3.24-1.79.04c-2.5-2.12-6.05-3.24-8.85-4.95,3.32.16-9.63-7.41-7.44-6.45-5.45-2.39-10.31-5.06-14.88-8.91-3.47-2.92-8.34-4.05-10.55-7.72,1.32-5.54,4.59-10.52,7.45-15.4,5.36,2.22-.43-2.61,8.26-3.42,4.45-.42,7.75.91,10.71,4.29,3.57,2.25,8.07.78,8.61,5.32,1.36-1.14,1.63-2.08,2.68-1.95Z"/><path class="cls-7" d="M45.77,335.75c-2.3,1.58-5.16.71-6.24-1.46-.73-1.46-.96-4.45.74-6.17s4.61-.86,5.9,1.07c1.11,1.65,2.22,4.76-.41,6.56Z"/><path class="cls-4" d="M84.42,376.5c6.48,3.24,12.43,7.62,19.64,9l-.07.96c-1.05-.13-1.32.8-2.68,1.95-.54-4.54-5.04-3.07-8.61-5.32-2.96-3.38-6.26-4.71-10.71-4.29-8.7.81-2.9,5.64-8.26,3.42,1.77-3.02,2.66-7.25,3.32-10.52,2.57-.22,5.03,3.64,7.36,4.8Z"/><circle class="cls-7" cx="56.48" cy="372.81" r="2.5"/><path class="cls-14" d="M84.42,376.5c-2.33-1.17-4.8-5.02-7.36-4.8-.3-.87-.97-2.48-.53-3.44,2.92,2.39,5.46,5.36,7.9,8.24Z"/><path class="cls-4" d="M63.95,396.97c.04.37.43.86.82.82l1.5-.16c2.21,3.68,7.08,4.8,10.55,7.72,4.57,3.85,9.43,6.52,14.88,8.91-2.18-.96,10.76,6.6,7.44,6.45l-20.87-12.8c-3.41-2.09-6.21-4.43-9.72-6.58l-7.06-4.35h2.46Z"/><path class="cls-13" d="M64.77,397.78c-.39.04-.77-.45-.82-.82.4.12.73.4.82.82Z"/><path class="cls-7" d="M50.57,246.15c-9.78,3.56-9.47,6.02-13.73,15.32-1.88-7.81-6.49-13.01-14.04-15.29,8.48-2.36,12.79-7.48,14.15-15.93,1.46,8.28,5.63,13.45,13.63,15.89Z"/><circle class="cls-7" cx="41.69" cy="199.68" r="4.29"/><path class="cls-12" d="M310.33,44.19c-1.95-.66-3.12-.34-5.29-2.17-2.98-2.52-35.14-23.22-41.42-22.88,3.57,5.86,2.82,9.75.36,14.48-10.89,20.98-8.74,16.9-22.87,33.8-1.53,1.83,2.56,3.43,2.91,4.84,2.86,11.41,6.43,7.57,11.21,19.77l3.92,10.01c.81,2.06,3.26,3.1,3.73,5.16-.49.94-1.55,1.69-2.89,2.06-5.23,1.42-8.92,5.05-13.16,8.16-3.06,2.24-7.21,3.5-8.52,6.99-.74.49-2.32.8-3.26,1.66-1.86-1.34-4.52-1.54-6.42-2.66-6.22-3.68-12.54-5.87-19.27-8.57-23.36-9.38-56.55-7.44-80.74-4.34-.61.02-1.43.32-1.62-.61,11.04-1.79,21.39-3.29,32.51-3.74-.85-1.88.15-4.85-1.55-6.11-1.53-1.13-3.61-1.24-4.4-2.58-1.03-1.73.65-3.45.39-4.95-.69-3.98,2.29-7.14,6.76-8.64-3.58-1.27-6.21-3.33-7.52-7.35-.46,1.05-1.1,1.47-1.71,2.1-3.31-3.72.35-13.66-1.05-22.59l-31.28,18.79c-6.48,3.9-12.62,8.13-19.19,11.11,5.6-4.79,11.36-6.43,17.78-11.73-.47.39,19.03-11.43,19.47-11.65,4.18-2.08,7.47-4.71,11.4-7.12l30.53-18.69c6.68-4.09,27.77-17.16,33.61-19.98,19.06-9.22,41.77-6.33,60.1,4.22l22.9,13.19c2.17,1.25,3.7,2.73,5.54,4.24,2.77,2.27,7.08,2.82,9.03,5.77ZM216.66,44.71c2.62.3,4.04-1.85,4.34-3.46.32-1.75-.88-3.8-2.95-4.91-1.95-1.05-3.73,2-4.2,3.51-.58,1.83.18,4.56,2.81,4.86ZM192.78,79.81c1.2-8.96,5.72-14.61,14.36-15.91-10.72-4.14-10.7-6.2-14.31-16.59-1.57,4.06-2.08,7.72-4.33,10.89-2.54,2.93-5.93,3.56-9.77,5.81,8.53,1.69,12.25,7.25,14.06,15.79Z"/><path class="cls-7" d="M153.95,92.51c-2.97.51.41-5.18-8.3-8.48,1.15-1.02,2.5-1.13,3.18-2.25.41-.16.7-.54,1.09-.74.93-.47,1.44-1.39,1.56-2.42.61-.63,1.24-1.05,1.71-2.1,1.31,4.02,3.94,6.08,7.52,7.35-4.46,1.51-7.45,4.66-6.76,8.64Z"/><path class="cls-12" d="M149.92,81.04c-.38.2-.68.58-1.09.74-.25-.26-.37-.44-.21-.51.4-.18,1.14-.33,1.3-.23Z"/><path class="cls-9" d="M457.67,144.87c0,1.68.81,3.23,1.52,5,2.09,5.21,1.92,10.77,4.21,15.46-.05.54,0,1.09,0,1.64l-.15,164.49c-1.76-11.91.16-25.04-.98-37.21-.04-.39-1.57.23-1.94.28-.47.07-1.09-.26-.78-1.06l.84-2.17c-2.17-.74-5.69-.18-7.38,1.78-.32.37,0,1.61-.16,1.99-1.03,2.45-.02-3.24-9.11-2.1.7-.71-1.24-22.27-2.45-17.14-2.05-7.12-3.96-14.13-7.63-20.93-1.5-2.78-2.24-5.54-4.09-7.79s-3.46-4.79-5.37-7.04l-.91-1.07c-.22-.26-.45-.72-.79-.85-.31-1.92-2.64-2.73-3.73-4.36-3-4.51-7.2-6.77-10.99-10.16l-5.62-5.02c3.23.9-12.32-9.78-12.5-10.42-.6-2.07,1.13-2.1,2.37-2.92l7.23-4.86c11.92-8,19.72-28.32,15.44-46.43-1.52-6.43-11.58-27.76-18.36-27.23-.15-.87-1.66-2.12-2.52-2.26-1.66-1.53-3.6-4.01-5.73-4.99,5.92,3.33-9.04-7.16-7.15-5.88-4.14-2.8-18.33-8.93-24.39-10.37,3.52-5.85,1.77-14.73,3.48-22.25,12.3-.32,6.46.05,15.6,3.75,3.26,1.32,6.54,3.1,9.29,5.31,2.44,1.96,5.7,2.65,7.94,4.79,2.74,2.63,6.24,3.68,9.41,5.6l20.93,12.67c2.53,1.53,4.51,3.41,7.31,4.96,7.11,3.92,14.71,8.17,19.18,14.85l7.97,11.93ZM444.24,153.49c-5.8-.88-8.27-5.25-10.63-10.37-1.17,6.18-4.48,8.9-10.32,11.11,6.58,2.22,9.4,5.47,10.45,11.58,4.38-13.48,6.59-3.85,10.49-12.31ZM441.95,187.86c0-1.28-1.04-2.32-2.32-2.32s-2.32,1.04-2.32,2.32,1.04,2.32,2.32,2.32,2.32-1.04,2.32-2.32ZM432.32,202.07c0-2.6-2.11-4.7-4.7-4.7s-4.7,2.11-4.7,4.7,2.11,4.7,4.7,4.7,4.7-2.11,4.7-4.7ZM459.36,257.62c0-1.85-1.5-3.35-3.35-3.35s-3.35,1.5-3.35,3.35,1.5,3.35,3.35,3.35,3.35-1.5,3.35-3.35Z"/><path class="cls-3" d="M310.33,44.19c4.57,1.56,17.41,9.26,20.46,12.28-9.74,11.07-15.15,21.54-24.16,33.94-1.62,2.23-3.5,3.81-3.51,6.74,4.42.09-15.82,1.55-9.17,2.75l-2.46.23c-.16-2.57-15.26,3.13-14.73,3-4.61,1.12-9.36,2.68-13.89,4.07-.47-2.06-2.92-3.1-3.73-5.16l-3.92-10.01c-4.78-12.2-8.35-8.36-11.21-19.77-.35-1.41-4.44-3-2.91-4.84,14.14-16.89,11.98-12.82,22.87-33.8,2.46-4.73,3.21-8.62-.36-14.48,6.27-.33,38.43,20.36,41.42,22.88,2.17,1.83,3.35,1.51,5.29,2.17ZM281.3,51.42c-.76-2.96-4.51-3.35-6.19-1.67-1.3,1.3-1.17,3.58-.43,4.96.55,1.04,1.63,3.2,3.69,2.45,1.77-.65,3.47-3.64,2.93-5.73Z"/><path class="cls-4" d="M303.13,97.14l25.78.52c.38,0,14.5,1.31,13.36,3.11-3.99-1-8.64-1.16-13.12-1.69-16.56-1.95-20.27-.6-35.2.81-6.65-1.2,13.59-2.66,9.17-2.75Z"/><path class="cls-13" d="M464.22,169.42v164.52c0,11.96-4.98,23.36-11.15,33.67-7.05,11.78-10.62,11.48-19.14,18.68-1.51,1.28-2.5,2.21-4.31,3.26-10.06,5.85-19.58,11.87-29.57,17.86l-30.68,18.37c-2.91,1.74-4.81,3.78-7.95,5.22-5.58,2.57-10.59,6.25-15.98,9.22-3.75,2.07-6.84,4.52-10.44,6.75l-28.34,17.53-31.62,19.34c-1.65,1.01-2.22,2.27-4.42,3.19l-6.06,2.54c-6.07,2.54-11.82,4.24-18.01,4.65,1.23-1.34-7.79-.67-9.36-1.76l9.1-8.96,22.29-18.54,23.11-18.68,24.59-19.56,20.15-16.67c2.2-1.82,4.07-3.72,5.6-5.71,5.9-2.67,11.78-5.72,18.1-8.54,6.63-2.96,13.21-5.28,19.47-8.89,6.64-3.83,13.08-7.17,19.14-11.36,4.27-2.96,9.07-5.12,12-9.6,2.61-3.99,7.17-6.57,10.19-10.17,1.19-1.43,2.67-3.05,3.75-4.57,7.92-11.16,13.95-23.78,16.56-37.67.57-3.03.06-5.77,1.12-8.77,1.48-4.2.48-9-.24-13.31.42,2.54-1.01-16.32-.81-15.62,1.21-5.14,3.15,16.43,2.45,17.14,9.09-1.13,8.07,4.56,9.11,2.1.16-.38-.16-1.62.16-1.99,1.68-1.96,5.21-2.52,7.38-1.78l-.84,2.17c-.31.8.31,1.13.78,1.06.37-.06,1.9-.67,1.94-.28,1.14,12.17-.78,25.29.98,37.21l.15-164.49c.93.47.78,1.56.82,2.46ZM428.73,373.39c0-2.02-1.64-3.66-3.66-3.66s-3.66,1.64-3.66,3.66,1.64,3.66,3.66,3.66,3.66-1.64,3.66-3.66ZM396.57,396.14c0-1.32-1.07-2.4-2.4-2.4s-2.4,1.07-2.4,2.4,1.07,2.4,2.4,2.4,2.4-1.07,2.4-2.4ZM365.76,413.1c0-.97-.79-1.76-1.76-1.76s-1.76.79-1.76,1.76.79,1.76,1.76,1.76,1.76-.79,1.76-1.76ZM350.45,424.21c1.83-.91,1.59-3.37.58-4.49-.76-.85-3.3-2.09-3.99-.69-.8,1.64-.98,3.5-.04,4.54.56.62,1.92,1.39,3.45.63Z"/><path class="cls-6" d="M464.22,333.94v-164.52c2.04,54.18.01,108.75,1.01,163.52.01.7-.92,1.12-1.01,1Z"/><path class="cls-13" d="M463.4,165.33c-2.29-4.69-2.12-10.25-4.21-15.46-.71-1.77-1.52-3.32-1.52-5v-.82c3.16,6.51,6.37,13.68,5.73,21.28Z"/><path class="cls-4" d="M342.03,404.34c-1.53,1.99-3.4,3.89-5.6,5.71l-20.15,16.67-24.59,19.56-23.11,18.68-22.29,18.54-9.1,8.96c1.57,1.09,10.6.43,9.36,1.76-4.34.29-9.03,2.4-13.16.15.37-.01.77.05,1.09-.02.6-.12.44-.62.12-.73l-1.56-.53c1.37.46-8.04-.72-9.88-1.42-5.49-2.08-10.31-1.61-16.6-5.56l-6.86-4.3c-5.11-3.2-10.31-5.49-14.73-8.89.14-2.2,2.41-3.38,3.69-5.26,5.47-8.06,9.82-11.12,15.24-19.27,2.57-3.86,5.44-8.01,8.38-11.25.22-.24-.99-1.03-.92-1.32.05-.2.48-.55.76-.39,31.04,6.78,51.34,3.64,80.16-9.04l37.6-16.54,12.16-5.51Z"/><path class="cls-7" d="M184.96,472.92c4.42,3.4,9.63,5.69,14.73,8.89l6.86,4.3c6.29,3.94,11.11,3.47,16.6,5.56,1.84.7,11.26,1.88,9.88,1.42l1.56.53c.32.11.47.6-.12.73-.32.07-.72,0-1.09.02-10.97.05-22.06-3.34-31.55-9.2-1.78-1.1-3.27-2.92-5.09-3.95l-9.43-5.34c-1.28-.73-3.85-1.56-3.86-2.79l1.5-.17Z"/><path class="cls-4" d="M109.79,425.61c.53.35,1.08,1.98,1.92,2.03,1.38.09,14.32,8.7,16.49,9.88,5.69,3.08,10.85,6.23,15.92,10.24,3.97,3.14,8.63,5.04,12.76,7.6,3.16,1.96,5.74,4.7,9.73,5.42,4.76,4.26,9.86,8.06,15.9,10.78.48.22.97,1.15.97,1.52-5.86-2.11-10.82-6.28-16.34-9.88-9.05-5.91-18.57-10.45-27.09-16.89-2.65-2-21.75-13.94-23.84-14.91-3.32-1.55-6.3-3.07-8.19-5.75l1.79-.04Z"/><path class="cls-16" d="M251.4,381.41l13.01,4.41c6.37,2.16,12.44,4.18,18.92,4.59-.4,1.47.71,1.91,2.05,1.7.66-.1,1.9.15,2.04-.88h1.64c-3.96,1.38,10.45,2.37,8.24,2.38l31.86-.09c5.56-.02,10.8-1.73,16.31-2.54,9.47-1.38,35.22-10.99,44.17-16.18,1.4,1.13,1.78,2.27,2.43,3.33-.2.43-.68,1.5-1.49,1.58-2.8.28-4.21,2.28-6.33,3.52-3.4,1.99-7.46,2.47-10.14,5.85-5.33.1-8.91,3.6-13.51,5.46l-6.5,2.63c-6.17,2.5-13.73,6.5-20.25,9.44l-15.18,6.84c-2.45,1.11-4.48,1.96-6.84,3.01l-23.14,10.31c-24.13,10.75-49.52,14.81-75.38,7.31-1.01-.29-2.55-.47-2.82.36l-13.81-4.85c-3.86-1.35-6.2-3.42-9.8-4.91l-37.52-15.63c-2.05-.85-4.39-1.29-5.3-2.98,2.5-.92,10.86,6.06,17.35,6.15-.26-7.93,3.83-6.76.09-17.83-.48-1.41-3.17-1.75-2.19-3.87,2.69.16,5.01-.57,7-1.94,2.53-1.76,5.8-2.27,9.08-3.05,15.51-3.65,30.22-8.86,44.33-16.07,1.83-.94,3.35-1.95,3.98-3.54,1.11.61,1.76,1.57,2.99,2.5,7.6,5.74,16.01,10.04,24.72,12.99ZM205.87,402.91c-1.23-1.91-5.21-.99-5.81.98-.7,2.28,1.85,6.05,4.33,5.15,1.21-.87,2.3-4.86,1.48-6.13ZM266.95,411.78c-.06.25.09.58,0,.82-1.24,3.15,4.77-1.44,7.46,8.45.15.54.61.41.92-.29l1.35-.03c.17.25.27.83.74.73,2.5-9.84,7.57-5.43,7.57-8.93v-.82c0-.4.06-.84-.03-1.21-.1-.42-.65-.57-1.19-.43-.29.07-.56.45-.5.88-.35-.28-.9-.83-1.31-.95-3.1-3.13-1.52-6.67-4.94-7.97-.32-.12-.64-.24-1-.15-2.98,3.41-5.35,7.25-9.07,9.91Z"/><path class="cls-5" d="M223.69,365.92c-.63,1.59-2.15,2.61-3.98,3.54-14.12,7.21-28.83,12.43-44.33,16.07-3.29.77-6.55,1.29-9.08,3.05-4.4.25-8.81.89-13.12,1.84-1.57-2.08,6.45-2.36,8.19-2.26,1.58-3.74,4.97-4.19,8.41-5.05,14.43-3.58,28.19-8.46,41.61-14.72-2.31,1.08,8.61-5.53,3.18-3.35.76-.09,1.43-1.79,2.46-1.64,1.36-.03,2.34-1.45,4.03-.35.9.58,1.62,2.3,2.64,2.86Z"/><path class="cls-11" d="M144.04,406.08c.91,1.7,3.25,2.13,5.3,2.98l37.52,15.63c3.59,1.5,5.94,3.56,9.8,4.91l13.81,4.85c.58.2,1.14.77,1.64.98-.28-.16-.71.19-.76.39-.07.28,1.14,1.08.92,1.32-2.94,3.24-5.81,7.39-8.38,11.25-5.43,8.15-9.77,11.21-15.24,19.27-1.28,1.89-3.54,3.06-3.69,5.26l-1.5.17c0-.36-.48-1.3-.97-1.52-6.04-2.72-11.14-6.52-15.9-10.78-3.99-.72-6.57-3.46-9.73-5.42-4.12-2.56-8.79-4.46-12.76-7.6-5.07-4.01-10.23-7.16-15.92-10.24-2.17-1.18-15.1-9.79-16.49-9.88-.83-.05-1.38-1.68-1.92-2.03l-4.93-3.24c4.94-9.58,12.49-17.77,11.66-28.59,9.28,3.86,17.98,9.07,27.51,12.29ZM120.74,420.7c.2,1.07,1.48,3.13,2.9,3.02,2.61-.2,4.88-2.35,5.7-4.77.55-1.61-.71-4.12-2.36-3.33-1.46-.61-3.32-.94-4.69,0s-1.51,2.86-1.55,5.08ZM157.41,429.69c0-1.38-1.12-2.5-2.5-2.5s-2.5,1.12-2.5,2.5,1.12,2.5,2.5,2.5,2.5-1.12,2.5-2.5ZM175.09,439.53c0-2.09-1.7-3.79-3.79-3.79s-3.79,1.7-3.79,3.79,1.7,3.79,3.79,3.79,3.79-1.7,3.79-3.79Z"/><path class="cls-6" d="M149.78,385.86c-.01.3.31,1.33-.23,1.64-1.77,1-3.64.54-5.29.57.03-.58-.01-1.17-.09-1.74,1.79-.15,3.82-.12,5.61-.47Z"/><path class="cls-6" d="M140.76,387.8c1.13-.12,2.35.29,3.5.27-1.47,1.73-4.07.08-6.12,1.08-2.56,1.25-5.1.77-7.96,1.77,5.19.69,10.56.88,15.61-.26,1.6-.36,3.31-.13,4.93-.24.79-.06,1.69.17,2.46,0,4.31-.95,8.72-1.58,13.12-1.84-1.98,1.37-4.31,2.1-7,1.94-.99,2.12,1.71,2.45,2.19,3.87,3.74,11.08-.34,9.91-.09,17.83-6.49-.08-14.85-7.07-17.35-6.15-9.53-3.23-18.24-8.43-27.51-12.29-2.35-.98-3.93-3.32-6.62-3.59-1.9-2.76,19.69,1.38,20.37-1.56,3.36-1.06,7.01-.46,10.48-.84Z"/><path class="cls-7" d="M192.78,79.81c-1.81-8.54-5.53-14.11-14.06-15.79,3.84-2.26,7.23-2.88,9.77-5.81,2.25-3.17,2.77-6.83,4.33-10.89,3.6,10.39,3.59,12.45,14.31,16.59-8.64,1.3-13.16,6.94-14.36,15.91Z"/><path class="cls-7" d="M216.66,44.71c-2.64-.31-3.39-3.03-2.81-4.86.47-1.51,2.25-4.56,4.2-3.51,2.07,1.12,3.27,3.17,2.95,4.91-.3,1.61-1.71,3.77-4.34,3.46Z"/><path class="cls-7" d="M444.24,153.49c-3.91,8.47-6.11-1.16-10.49,12.31-1.05-6.12-3.87-9.36-10.45-11.58,5.83-2.2,9.14-4.93,10.32-11.11,2.36,5.12,4.82,9.5,10.63,10.37Z"/><circle class="cls-7" cx="427.62" cy="202.07" r="4.7"/><circle class="cls-13" cx="456.01" cy="257.62" r="3.35"/><circle class="cls-7" cx="439.63" cy="187.86" r="2.32"/><path class="cls-16" d="M424.2,240.07c.29.57-.4.68-.56.53-.57-.56-.39-1.32-.36-1.6l.91,1.07Z"/><path class="cls-7" d="M281.3,51.42c.54,2.09-1.16,5.09-2.93,5.73-2.06.75-3.14-1.41-3.69-2.45-.73-1.38-.86-3.66.43-4.96,1.68-1.68,5.42-1.29,6.19,1.67Z"/><path class="cls-4" d="M291.5,100.12l-14.73,3.82v-.82c-.53.13,14.57-5.56,14.73-3Z"/><path class="cls-5" d="M398.74,375.54c-6.05,4.19-12.5,7.53-19.14,11.36-6.26,3.61-12.84,5.93-19.47,8.89-6.32,2.82-12.2,5.87-18.1,8.54l-12.16,5.51-37.6,16.54c-28.82,12.68-49.12,15.82-80.16,9.04-.5-.22-1.05-.78-1.64-.98.27-.83,1.81-.66,2.82-.36,25.86,7.5,51.25,3.44,75.38-7.31l23.14-10.31c2.36-1.05,4.39-1.91,6.84-3.01l15.18-6.84c6.52-2.94,14.08-6.95,20.25-9.44l6.5-2.63c4.6-1.86,8.17-5.36,13.51-5.46,2.69-3.38,6.74-3.86,10.14-5.85,2.12-1.24,3.54-3.24,6.33-3.52.81-.08,1.29-1.15,1.49-1.58,3.42.02,7.06-4.7,6.67-2.59Z"/><circle class="cls-7" cx="425.07" cy="373.39" r="3.66"/><path class="cls-7" d="M350.45,424.21c-1.52.76-2.89-.01-3.45-.63-.94-1.04-.76-2.9.04-4.54.68-1.4,3.22-.16,3.99.69,1.01,1.11,1.25,3.58-.58,4.49Z"/><circle class="cls-7" cx="394.17" cy="396.14" r="2.4"/><circle class="cls-7" cx="364" cy="413.1" r="1.76"/><path class="cls-7" d="M281.96,409.99c.41.12.96.68,1.31.95.51.41,1.01.8,1.73.76v.82c-4.16.61-7.38,4.15-8.31,8.21l-1.35.03c-.11-4.36-4.32-7.24-8.38-8.16.09-.24-.06-.57,0-.82,5.25-.57,7.95-4.95,9.07-9.91.35-.09.67.02,1,.15.41,3.29,1.42,7.29,4.94,7.97Z"/><path class="cls-7" d="M205.87,402.91c.82,1.27-.27,5.25-1.48,6.13-2.48.9-5.03-2.87-4.33-5.15.6-1.97,4.58-2.88,5.81-.98Z"/><path class="cls-5" d="M276.02,401.87c-1.12,4.96-3.82,9.34-9.07,9.91,3.73-2.65,6.09-6.5,9.07-9.91Z"/><path class="cls-5" d="M281.96,409.99c-3.52-.68-4.53-4.68-4.94-7.97,3.41,1.3,1.84,4.84,4.94,7.97Z"/><path class="cls-5" d="M284.99,412.52c0,3.5-5.07-.91-7.57,8.93-.47.11-.57-.48-.74-.73.93-4.06,4.15-7.6,8.31-8.21Z"/><path class="cls-5" d="M275.32,420.75c-.3.7-.77.84-.92.29-2.69-9.89-8.7-5.3-7.46-8.45,4.06.92,8.27,3.79,8.38,8.16Z"/><path class="cls-5" d="M284.99,411.7c-.71.04-1.21-.35-1.73-.76-.06-.43.21-.81.5-.88.54-.14,1.09,0,1.19.43.09.37.03.82.03,1.21Z"/><path class="cls-5" d="M150.72,390.42c-1.62.11-3.33-.12-4.93.24.66-1.82,3.88-1.59,4.93-.24Z"/><circle class="cls-7" cx="171.3" cy="439.53" r="3.79"/><path class="cls-7" d="M126.98,415.63c1.52,1.65,1.32,4.9-.76,6.26-1.68,1.11-4.17.5-5.48-1.19.05-2.22.17-4.13,1.55-5.08s3.23-.6,4.69,0Z"/><circle class="cls-7" cx="154.9" cy="429.69" r="2.5"/><path class="cls-9" d="M120.74,420.7c1.31,1.69,3.8,2.29,5.48,1.19,2.08-1.37,2.28-4.61.76-6.26,1.65-.8,2.91,1.71,2.36,3.33-.82,2.42-3.09,4.57-5.7,4.77-1.42.11-2.71-1.95-2.9-3.02Z"/><path class="cls-10" d="M393.83,124.48c.85.13,2.37,1.39,2.52,2.26.23,1.33,1.74,1.27,2.52,2.31,1.65,2.19,3.09,4.21,4.78,5.99-.38,1.17.44,1.91,1.18,2.9,4.53,6.13,6.85,12.94,8.18,20.57,1.42,8.13-.2,16.55-3.37,24.61-2.07,5.27-6.52,9.42-9.15,14.29-.25.23-.58.51-.75.79-1.5-.16-2.77.57-4.07,1.73-5.21,4.64-9.45,3.09-10.02,5.51-.08.36-.66.59-.79.95-1.38-.03-2.73-.78-3.98-1.79-2.15-1.74-14.25-7.39-15.69-7.51-.26-.02-.56-.13-.82-.1-1.14-1.45-3.6-.58-4.91-1.55-1.48-1.08-3.39-1.07-5.25-1.94-8.31-3.88-17.17-4.61-25.86-1.25l9.01,3.93c.9,1.7,2.87,2.05,4.84,2.79l31.54,11.84,9.45,4.67c8.38,4.14,16.13,9.17,24.08,14.18.47.3.51-.04.48-.49,1.71.3,2.13,2.23,3.38,3.34,5.08,4.47,9.23,9.28,12.82,14.6-.66,3.01,2.33,5.33,3.64,8.04,4.46,9.22,7.2,19.28,7.9,29.6l.68,9.96c.17,2.54-.76,5.42-.78,8.13-.06,8.61-3.35,16.24-5.77,24.22-2.94,9.7-6.52,10.29-6.44,14.24.04,1.66-6.15,8.68-5.61,8.19.16-.68.44-1.33-.6-1.69-.46,1.13-.17,1.83-.22,2.51-.07.94-1.19,1.09-1.61,1.66-1.68.52-2.3,2.04-3.17,3.33-4.72,6.98-4.52,4.44-12.41,9.74-1.11.75-2.03,1.32-3.3,2.5-6.32,5.86-22.76,12.73-30.75,15.06l-15.82,4.61c-13.93,4.06-40.81,5.41-53.66,3.72l-14.41-1.89c-3.41-.45-5.97-1.43-9.1-2.42-3.82-1.2-16.53-3.7-18.94-5.93-.33-.31-1.23.03-1.6,0-.28-.02-.73.19-.57.72-8.71-2.95-17.12-7.25-24.72-12.99-1.23-.93-1.88-1.9-2.99-2.5-1.02-.56-1.74-2.28-2.64-2.86-1.69-1.1-2.67.32-4.03.35-4.64.11-8.55,3.65-12.85,5.69-6.79,3.22-13.6,5.19-20.65,7.48-1.14.37-2.09.74-2.52,1.57-.26.05-.55,0-.82,0-2.61,0-5.5.53-7.37,2.46-.45.46-.92.89-1.64.82.17-.55-.28-.62-.57-.69-.51-.13-.93.03-1.54.14l-21.67,3.81c-14.09,2.48-40.16,3.01-52.77-3.97l-5.2-2.88c-10.31-5.71-10.62-10.65-13.95-14.46-1.8-2.05-3.12-5.34-4.19-8.03-3.91-9.84-5.15-20.06-6.2-30.58l-.96-9.62c-.42-4.21-.68-8.13-.79-12.28l-.59-20.88-.79-32.11-.19-5.88c-.13-4.09.18-7.56.28-11.65l.56-22.43c.21-8.35,4.97-18.42,2.97-19.21-.29-.12-.59-.54-.8-.77-3.42-3.83-7.9-6.76-10.49-11.6-4.59-8.6-4.73-18.49-.51-27.49,3.28-6.99,9.75-12.15,16.23-16.2,1.68-1.05,2.75-3.04,4.56-3.64,4.2-1.41,7.65-3.76,11.64-5.43,10.38-4.34,20.72-7.44,31.32-10.62,2.89-.87,5.22-2,8.39-2.38-.21.03,26.99-3.91,23.45-2.9,4.57-1.3,8.57-.25,12.87-.45,5.36-.25,10.13-.34,15.65.48,5.89.87,18.77,2.15,24.32,4.2l10.18,3.77c6.72,2.49,13.47,4.72,19.18,8.43,7.48,4.87,8.72-3.13,17.48-7.15,2.86-1.31,3.61-3.94,15.13-8.87,9.86-4.22,5.82-2.41,15.54-4.99l7.04-1.87c28.12-7.46,63.67-2.55,89.69,10.67,1.87.95,14.91,10.23,17.34,10.6ZM245.09,133.09l-.4,1.89c6.2,6.82,14.54,11.89,20.16,20.14,3.77,5.53,7.78,10.3,10.88,16.25,11.02,21.18,15.73,44.63,14.35,68.51l-.74,12.8c-.12,2.16,1.93,2.15,3.07,2.21,15.1.92,29.66,4.68,43.35,10.94,1.21.55,1.78,2.5,3.49,2.23,2.35-.36,2.25,2.46,3.5,3.3,4.67,3.13,9.63,7.93,9.71,14.27l.07,5.87c.08,7.24-6.16,12.84-12.74,15.38-2.49.97-4.84,2.68-7.41,3.29-10.74,2.52-22.3,2.68-32.67-.74-8.3-2.74-16.34-5.12-23.2-10.43-1.32-1.02-2.12-4.45-3.83-2.74-.29.29-1.04.04-1.39.24-2.18,1.23-3.29,3.94-4.17,6.45s-3.31,4.03-4.6,6.09-.72,4.98-3.18,6.74c-.78.55-1,1.9-1.12,2.58-.09.53.03,1.1-.03,1.64-3.91,4.33-6.89,3.93-7.62,9.82-.28,0-.77-.05-1.01.09-4.24,2.57-8.89,7.27-12.09,12.19-.29.45-.83,1.07-.92,1.59-2.86-.14-5.27,2.97-5.66,5.77-.36,2.62,2.69,4.02,4.6,5.03l7.04,3.73c3.81,2.02,7.38,3.51,11.3,4.95l8.07,2.96c2.12.78,3.63,1.93,6.03,2.56,6.78,1.79,13.18,3.66,20.15,4.03,1.18.06,2.29,1.76,3.94.66s3.07.94,4.5,1.05c4.53.34,9.26-1.36,13.7-.15,2.98.82,5.44-.21,8.18-.04,4.6.29,8.42.53,12.64-.81s9.1-.7,13.35-1.83l14.18-3.78c1.56-.42,2.5-3.19,4.89-3.06,3.07.16,5.53-1.91,8.11-2.88,8.95-3.39,10.82-6.05,19.86-10.69.62-.32,1-.99,1.15-1.51.18-.62-.51-1.05-1.23-1.04v-.82c2.63-.8,3.87-3.68,6.55-4.32,1.19-.28,1.96-1.13,2.43-2.26.13-.3.62-.55.84-.79,2.37.53,6.59-7.01,9.31-8.34,2.22-1.09,1.18-2.51,2.01-3.55,6.2-7.75,10.73-16.4,12.01-26.62.24-1.93,1.79-4.71,1.6-6.41-.55-5.01-.04-9.39-.19-14.23-.38-12.3-5.19-24.26-13.13-33.04-.64-.71-1.65-1.54-2.38-2.16.8.28.49-.43.05-.9-3.82-4.76-8.82-8.04-13.24-12.11-1.17-1.08-1.28-2.21-3.18-2.8-4.64-1.44-7.02-4.65-16.44-8.57l-22.63-9.43c-14.99-6.25-25.69-8.28-40.36-14.18-4-1.61-6.4-4.03-8.58-7.38-7.02-10.8.05-16.27.03-16.08.05-.49-1.04-.91-1.43-1.18l-.05-1.65c.5-.19,1.22-.8,1.75-.76,3.58.42,6.8-2.54,10.61-3.23,10.62-1.93,28.77,2.16,30.17,3.83l1.41,1.68,1.42-.86,31.36,13.42c2.9,1.24,11.01-.4,14.03-2.61,2.35-1.72,3.8-4.63,5.6-6.61,2.05-2.25,2.07-4.65,2.93-7.06,1.39-3.92,1.08-6.54.32-10.44s-1.08-7.71-3.63-11.5c-6.29-9.36-2.82-5.74-11.49-14.55-6.13-6.23-14.17-10.21-22.13-13.61l-12.22-5.22c-18.77-8.02-63.14-7.45-75.47-.63l-4.99,2.76c-.25.14-28.06,11.43-29.17,16.62ZM65.23,173.16c.34,3.06,3.66,4,5.27,6.09,2.7,3.47,6.59,5.62,11.44,6.57-3.97,9.14-7.11,9.99-8.03,21.16l-.76,9.18c-.95,11.45-.31,22.71,0,34.3l.93,35.22.65,13.74.35,9.87,1.45,12.43,1.22,14.09c.37,4.25,3.39,13.94,5.13,16.82,2.65,4.37,5.87,7.56,9.83,10.88,6.55,5.49,2.92-.25,5.85,4.2.16.25.41.08,1.08-.67,1.99,4.29,26.87,4.61,30.48,4.03l5.15-.83c3.44-.55,7.66-.15,10.94-1.28,2.6-.89,5.94.27,8.28-1.11,7.98-4.68,5.06-.16,15.76-4.6,1.89-.78,4.22-.93,6.45-1.72l12.92-4.59c4.63-1.65,9.21-4.67,11.79-5.25,2.05-.46,3.26-3.46,5.26-4.33,6.38-2.8,11.88-6.25,17.29-10.51,2.6-2.05,5.67-3.32,7.25-6.08,1.6-1.16,1.26-3.22,3.1-4.24,1.51,1.06,3.5-1.65,3.99-3.1.31-.92.93-1.22,1.66-1.74,1.15.82,7.62-6.68,8.65-7.8,1.45-1.59,4.05-2.24,2.99-5.19,2.54-.44,2.65-2.67,3.88-4.23,4.28-5.44,7.71-11.05,10.38-17.43,1.03-2.45,2.61-4.51,3.62-6.89l2.68-6.33c4.67-11.04,7.78-24.02,8.24-35.89.19-4.77,2.69-10.56.41-15.16-.82-1.67-.56-13.26-3.05-21.07l-4.3-13.5c-2.44-7.67-10.02-20.74-15.15-26.52l-9.61-10.83c-6.08-6.85-13.94-11.05-21.46-16.17-10.68-7.27-22.83-11.1-35.6-13.49-10.9-2.04-30.57-3.7-40.66-2.2l-24.81,3.66c-3.52.52-6.38,1.75-9.7,2.69-8.97,2.54-17.79,4.68-25.85,9.37-6.31,3.67-12.77,6.38-18.53,10.9-7.04,5.54-16.25,15.68-9.65,24.65.85,1.16,1.11,3.52,2.81,2.9ZM340.38,293.66c.66-2.55.71-6.3-1.01-8.52-8.16-10.48-36.08-13.05-49.84-14.24-1.04,7-3.87,12.94-7.24,19.73,7.62,6.33,16.67,9.99,26.38,10.85,7.7.68,29.36,1.17,31.71-7.83Z"/><path class="cls-15" d="M171.18,381.41c-1.5-.15-2.89.78-4.6,1.12l-16.8,3.33c-1.79.35-3.82.32-5.61.47-.6.05-1.2-.15-1.97-.03-.61.09-1.8.47-1.44,1.51-3.47.38-7.12-.21-10.48.84-3.38.39-18.75-.6-21.64-2.08-1.52-.78-3.2-.79-4.58-1.06-7.21-1.38-13.16-5.76-19.64-9-2.44-2.88-4.98-5.85-7.9-8.24.59-1.3-4.68-7.46-7.11-14.46-3.64-10.48-5.04-21.22-5.97-32.34l-.94-11.26-.54-13.52c-.29-7.35-.45-14.56-.81-22.14-.95-20.19-.57-40.26-.14-60.47.18-8.39,1.8-16.07,4.58-23.37,2,.79-2.76,10.86-2.97,19.21l-.56,22.43c-.1,4.09-.41,7.56-.28,11.65l.19,5.88.79,32.11.59,20.88c.12,4.15.37,8.06.79,12.28l.96,9.62c1.05,10.52,2.29,20.74,6.2,30.58,1.07,2.69,2.4,5.97,4.19,8.03,3.33,3.81,3.65,8.75,13.95,14.46l5.2,2.88c12.61,6.98,38.68,6.45,52.77,3.97l21.67-3.81c.61-.11,1.03-.27,1.54-.14.29.07.74.14.57.69Z"/><path class="cls-15" d="M342.28,100.77c12.36,3.11,24.85,6.15,36.14,12.88,3.42,2.04,6.29,4.28,9.67,5.84,2.13.98,4.07,3.47,5.73,4.99-2.43-.38-15.47-9.65-17.34-10.6-26.03-13.21-61.57-18.12-89.69-10.67l-7.04,1.87c-9.73,2.58-5.69.77-15.54,4.99-11.52,4.93-12.27,7.56-15.13,8.87-8.76,4.02-10,12.02-17.48,7.15-5.71-3.71-12.46-5.94-19.18-8.43l-10.18-3.77c-5.55-2.06-18.43-3.34-24.32-4.2-5.52-.81-10.29-.73-15.65-.48-4.29.2-8.3-.85-12.87.45,3.54-1.01-23.67,2.93-23.45,2.9-3.17.38-5.5,1.52-8.39,2.38-10.6,3.18-20.94,6.28-31.32,10.62-4,1.67-7.45,4.03-11.64,5.43-1.81.61-2.88,2.59-4.56,3.64-6.48,4.04-12.95,9.21-16.23,16.2-4.22,9-4.08,18.89.51,27.49,2.59,4.84,7.07,7.78,10.49,11.6-.94,0-1.63-.59-2.42-.96-3.36-1.59-4.87-3.87-6.99-6.8-9.5-13.13-7.83-30.56,4.88-41.15.92-.77,1.85-1.56,2.05-2.7,1.88-1.19,3.89-2.1,5.93-3.93,5.27-4.72,11.89-7.33,18.34-10.25,7.13-3.23,36.3-12.92,42.03-13.65,24.19-3.1,57.37-5.05,80.74,4.34,6.74,2.71,13.06,4.89,19.27,8.57,1.89,1.12,4.56,1.32,6.42,2.66.94-.86,2.52-1.17,3.26-1.66,3.29-2.17,6.38-5.11,10.2-6.92,1.82-.86,2.67-2.32,4.15-3.28,7.51-4.86,15.8-8.11,24.12-10.26l14.73-3.82,2.46-.23c14.93-1.41,18.64-2.77,35.2-.81,4.48.53,9.13.69,13.12,1.69Z"/><path class="cls-14" d="M420.22,311.02c-1.64.72-1.79,2.95-2.81,4.8l-6.39,11.57c-.94,1.7-.54,3.08-2.37,5.06l-7.45,8.04c-.22.24-.72.49-.84.79-1.02.49-1.86,1.28-2.43,2.26-2.68.64-3.92,3.52-6.55,4.32-1.59-1.45-2.27,1.23-3.51,2.22-11.21,8.94-28.07,12.83-40.67,17.49-10.59,3.92-40.8,5.2-50.31,3.74l-7.32-1.12-11.11-1.9c-1.38-.24-2.45-1.66-3.77-1.84-6.69-.88-12.47-3.4-18.63-5.73-2.16-.82-23.91-9.1-22.82-12.16.6-2.15,3.01-2.87,3.33-4.83.09-.52.63-1.15.92-1.59.28-.65.97-.86,1.64-.82.97-.01,1.83-.52,2.68-1.37l7.04-7.07c.18-.45-.39-.68-.72-.56.23-.85,1.25-1.46,1.45-2.36.24-.14.73-.1,1.01-.09.93,0,1.8-.78,2.3-1.86,1.44-3.09,4.99-4.74,5.31-7.96.05-.54-.06-1.11.03-1.64,2.73-2.52,4.68-6.04,6.56-9.64,2.22-4.24,5.56-7.78,6.51-12.22.36-.2,1.11.05,1.39-.24,2.21,2.71,5.07,5.28,7.97,7.42-.78.48-1.61,1.39-2.15,2.49-4.09,8.37-21.02,32.31-29.26,39.28,2.56,1.84,8.8,1.76,9.41,4.13.79.67,2.12.43,2.97,1.41-1.19,2.18-3.37,1.23-4.33,4.16,29.8,10.77,61.68,12.08,92.1,3.9,9.12-2.45,17.72-5.49,25.33-10.49,8.89-5.83,17.21-11.55,23.87-19.66,9.2-11.2,15.86-23.13,17.28-37.75.8-8.23-.52-15.92-.59-24.75,1.71,2.32,2.69,5.22,2.85,7.72s1.7,2.67,2.65,4.06c2.71,4,.93,9.22,2.06,14.06,1.64-8.37-1.29-25.95-6.87-33.85-.27-.38.54-.78.76-.6,2.7,2.16,3.52,5.49,4.71,9.18,4.63,14.33,4.35,30.41-1.24,44.02Z"/><path class="cls-5" d="M340.38,293.66c-2.35,9-24.01,8.51-31.71,7.83-9.71-.86-18.76-4.52-26.38-10.85,3.37-6.79,6.2-12.73,7.24-19.73,13.76,1.19,41.68,3.76,49.84,14.24,1.72,2.21,1.67,5.97,1.01,8.52Z"/><path class="cls-6" d="M422.51,238.14c.34.13.57.59.79.85-.03.28-.22,1.04.36,1.6.16.15.85.05.56-.53,1.91,2.25,3.5,4.77,5.37,7.04-.69-.22-.58.91-.36,1.41,15.46,22.96,15.81,68.48,2.55,89.79l-4.43,7.11c-1.17,1.88-3.68,3.55-2.67,5.79-1.08,1.52-2.56,3.14-3.75,4.57.32-.46-.33-.75-.66-.41l-9.93,9.93c-.33.33-.05.97.41.66-2.93,4.48-7.73,6.64-12,9.6.39-2.11-3.24,2.62-6.67,2.59-.65-1.05-1.03-2.2-2.43-3.33-8.95,5.19-34.71,14.8-44.17,16.18-5.52.81-10.76,2.52-16.31,2.54l-31.86.09c2.2,0-12.2-1-8.24-2.38l4.86.8c6.69,1.1,26.71.93,34.19.7l26.17-4.83c2.45-2.08,5.37-2.52,8.33-3.4,12.18-3.63,23.62-8.59,34.13-15.65,1.47-.99,2.48-2.48,2.81-3.81,7.89-5.31,7.69-2.76,12.41-9.74,1.39-.76,2.25-2.09,3.17-3.33.42-.57,1.54-.72,1.61-1.66.31-.23.54-.56.82-.82-.53.5,5.65-6.52,5.61-8.19,18.51-26.72,19.17-66.95.77-94.2-3.6-5.32-7.75-10.14-12.82-14.6-1.26-1.1-1.68-3.04-3.38-3.34-.79-.14-1.15-1.15-1.64-1.64,2.2-.71,3.37,2.79,6.72,4.07,2.38-2.95,5.34,4.92,9.68,6.54Z"/><path class="cls-14" d="M307.88,169.42c-.22-.59-.63-.66-.89-.44-.46.41-.69,1.05-.58,1.43.06.22-.08.48-.06.7-.53-.04-1.25.57-1.75.76-5.66,2.17-3.43,11.75-4.49,15.25-3.01,2.4-3.97-6.34-4.48-3.17-.93-3.52-2.75-5.99-.65-10.39,1.14-2.39,1.65-5.24,3.9-7.56,12.94-13.31,36.63-9.43,52.89-4.37,5.76,1.79,11.01,4.2,17.04,4.99,1.32.17,2.52.39,3.04,1.36-.8,1.14-3.02.11-3.97.89-1.9,1.57,2.77,3.31,4.39,5.38.8,1.02-.72,2.91-.43,4.02,8.32,5.06,15.3,7.74,23.53,1.47,11.16-8.49,6.19-29.64-2.47-39.44l.56.11c11.5,10.95,13.64,34.22.28,41.9-4.48,2.57-10.43,2.9-15.34.75l-23.32-10.2c-14.64-6.41-32.68-10.12-47.2-3.46Z"/><path class="cls-16" d="M384.85,206.38c5.65,4.25,12.11,7.56,17.32,12.22l5.62,5.02c3.79,3.39,7.99,5.65,10.99,10.16,1.09,1.63,3.42,2.43,3.73,4.36-4.34-1.62-7.3-9.49-9.68-6.54-3.36-1.28-4.53-4.78-6.72-4.07l-.82-.82c-1.88-1.88-4.1-3.35-6.57-4.91l-6-3.77c-1.6-1.01-10.45-6.69-11.17-4.62-12.12-6.83-17.55-6.82-29.47-12.57,1.71-.8,3.5,1.01,5.39.91,4.79-.28,9.02-.44,14.46-.46-1.26-2.02-6.99-2.67-6.76-4.22,1.44.12,13.54,5.77,15.69,7.51,1.26,1.01,2.6,1.76,3.98,1.79Z"/><path class="cls-15" d="M230.91,349.49c7.95,5.96,17.04,10.08,26.8,13.31l15.01,4.96c21.98,7.25,56.78,7.32,79.33-.23,14.06-4.71,27.94-9.76,39.32-18.85.72,0,1.41.43,1.23,1.04-.15.52-.54,1.19-1.15,1.51-9.05,4.65-10.92,7.3-19.86,10.69-2.58.98-5.04,3.04-8.11,2.88-2.39-.12-3.33,2.65-4.89,3.06l-14.18,3.78c-4.25,1.13-9.01.46-13.35,1.83s-8.04,1.1-12.64.81c-2.74-.17-5.2.85-8.18.04-4.44-1.22-9.17.49-13.7.15-1.42-.11-2.89-2.11-4.5-1.05s-2.77-.6-3.94-.66c-6.97-.37-13.36-2.24-20.15-4.03-2.4-.63-3.9-1.78-6.03-2.56l-8.07-2.96c-3.92-1.44-7.49-2.94-11.3-4.95l-7.04-3.73c-1.91-1.01-4.96-2.42-4.6-5.03ZM267,367.18c0-.25-.21-.46-.46-.46s-.46.21-.46.46.21.46.46.46.46-.21.46-.46Z"/><path class="cls-5" d="M359.44,195.43c1,1.63,3.15,1.77,4.91,1.55.26-.03.56.08.82.1-.23,1.55,5.5,2.21,6.76,4.22-5.45.02-9.67.19-14.46.46-1.89.11-3.69-1.71-5.39-.91-4.56-.15-9.11-3.49-14.73-4.68l-9.01-3.93c8.69-3.37,17.55-2.63,25.86,1.25,1.86.87,3.78.86,5.25,1.94Z"/><path class="cls-15" d="M306.36,171.11c-.03-.23.12-.49.06-.7.65,0,1.24-.37,1.47-.99,14.52-6.66,32.56-2.95,47.2,3.46l23.32,10.2c4.91,2.15,10.87,1.82,15.34-.75,13.37-7.69,11.22-30.95-.28-41.9-2.21-2.1-3.64-5.19-6.07-7.11-2.2-1.74-4.33-3.71-6.88-5.34-9.76-6.23-20.17-9.54-30.83-13.47-10.43-3.85-31.03-5.71-42.08-4.41l-13.18,1.55c-7.23.85-11.23,2.98-18.18,5.51-5.76,2.1-11.3,3.94-16.39,7.55-1.17.83-3.01.57-4.13,1.55-3.32,2.93-6.77,5.4-10.64,6.84,1.11-5.19,28.93-16.48,29.17-16.62l4.99-2.76c12.34-6.82,56.7-7.39,75.47.63l12.22,5.22c7.96,3.4,16,7.38,22.13,13.61,8.67,8.82,5.2,5.2,11.49,14.55,2.55,3.8,2.85,7.49,3.63,11.5s1.07,6.52-.32,10.44c-.86,2.41-.88,4.81-2.93,7.06-1.8,1.98-3.25,4.88-5.6,6.61-3.01,2.21-11.12,3.85-14.03,2.61l-31.36-13.42-1.42.86-1.41-1.68c-1.4-1.67-19.55-5.76-30.17-3.83-3.8.69-7.02,3.64-10.61,3.23Z"/><path class="cls-15" d="M291.51,227.53v12.28c0,8.12-1.33,8.46-.39,13.42,19.8,1.99,35.96,5.37,52.77,16.24,1.24.8,1.44,3.36,3.36,3.07.21,1.55,1.3,1.8,2.38,2.46-.09,1.27.95,2.03,1.7,3.25,3.75,6.14,4.44,14.01.45,20.14-2.05,3.14-4.83,5.3-7.06,7.83-2.19.66-4.67,2.4-7.1,3.5-10.8,4.9-22.54,4.36-34.18,2.55-4.17-.65-7.47-1.57-11.15-3.65s-8.36-2.52-11.63-4.91c-2.9-2.13-5.76-4.7-7.97-7.42,1.71-1.71,2.51,1.72,3.83,2.74,6.86,5.31,14.9,7.69,23.2,10.43,10.37,3.42,21.93,3.26,32.67.74,2.57-.6,4.92-2.32,7.41-3.29,6.58-2.55,12.83-8.15,12.74-15.38l-.07-5.87c-.07-6.34-5.03-11.14-9.71-14.27-1.25-.84-1.15-3.66-3.5-3.3-1.71.26-2.28-1.68-3.49-2.23-13.69-6.26-28.25-10.02-43.35-10.94-1.14-.07-3.19-.06-3.07-2.21l.74-12.8c1.37-23.88-3.33-47.33-14.35-68.51-3.1-5.96-7.11-10.72-10.88-16.25-5.62-8.25-13.96-13.32-20.16-20.14,4.21,1.31,15.45,11.9,18.13,15.55,1.82,2.48,3.02,4.91,5.29,7,2.66,2.44,3.92,6.08,6.15,8.63s2.69,5.37,4.18,8.14c4.7,8.74,7.81,17.43,9.79,27.12,1.8,8.78,3.27,17.49,3.27,26.12Z"/><path class="cls-15" d="M401.19,340.49l7.45-8.04c1.83-1.98,1.43-3.36,2.37-5.06.76,1.81,10.13-15.77,9.2-16.37,5.59-13.61,5.87-29.69,1.24-44.02-1.19-3.69-2-7.02-4.71-9.18-1.07-.85-1.25-3.2-2.57-4.02,2.06-2.45-2.15-1.81-1.37-5.5,7.94,8.78,12.75,20.74,13.13,33.04.15,4.84-.36,9.21.19,14.23.19,1.7-1.36,4.48-1.6,6.41-1.28,10.21-5.81,18.87-12.01,26.62-.83,1.04.21,2.46-2.01,3.55-2.72,1.33-6.94,8.87-9.31,8.34Z"/><path class="cls-15" d="M399.55,365.04c-.33,1.33-1.35,2.83-2.81,3.81-10.52,7.07-21.95,12.02-34.13,15.65-2.97.88-5.89,1.32-8.33,3.4l-26.17,4.83c-7.48.22-27.51.4-34.19-.7l-4.86-.8h-1.64c-1.42,0-2.73-.73-4.09-.82-6.48-.41-12.54-2.43-18.92-4.59l-13.01-4.41c-.16-.53.28-.73.57-.72.37.03,1.27-.31,1.6,0,2.41,2.24,15.13,4.73,18.94,5.93,3.13.99,5.69,1.97,9.1,2.42l14.41,1.89c12.85,1.69,39.73.34,53.66-3.72l15.82-4.61c7.99-2.33,24.43-9.2,30.75-15.06,1.27-1.17,2.19-1.75,3.3-2.5Z"/><path class="cls-16" d="M214.57,365.04c5.43-2.18-5.5,4.43-3.18,3.35-13.42,6.25-27.18,11.14-41.61,14.72-3.44.85-6.83,1.31-8.41,5.05-1.74-.1-9.75.18-8.19,2.26-.77.17-1.67-.06-2.46,0-1.05-1.34-4.27-1.57-4.93.24-5.05,1.14-10.42.95-15.61.26,2.86-1,5.4-.52,7.96-1.77,2.05-1,4.65.65,6.12-1.08,1.65-.03,3.52.43,5.29-.57.54-.31.22-1.34.23-1.64l16.8-3.33c1.71-.34,3.1-1.27,4.6-1.12.72.07,1.19-.36,1.64-.82,2.6-.04,5.56-.49,7.37-2.46.27,0,.56.05.82,0,9.7-1.77,19.2-5.76,28.28-10.21,1.93-.95,3.24-2.64,5.28-2.88Z"/><path class="cls-16" d="M144.17,386.33c.07.58.12,1.16.09,1.74-1.14.02-2.37-.39-3.5-.27-.36-1.04.83-1.42,1.44-1.51.77-.11,1.37.08,1.97.03Z"/><path class="cls-15" d="M410.43,246.14l-13.8-11.65c-4.53-3.83-8.9-7.1-14.54-9.27l-4.64-1.78-27.73-11.5c-10.17-4.22-29.81-9.35-36.94-13.05-5.82-3.02-16.97-16.41-8.14-25.36.39.26,1.48.69,1.43,1.18.02-.19-7.05,5.27-.03,16.08,2.17,3.35,4.57,5.77,8.58,7.38,14.68,5.89,25.37,7.93,40.36,14.18l22.63,9.43c9.42,3.92,11.8,7.13,16.44,8.57,1.9.59,2.01,1.72,3.18,2.8,4.42,4.07,9.42,7.35,13.24,12.11.44.46.75,1.18-.05.9Z"/><path class="cls-15" d="M423.18,341.31c-.08-3.95,3.5-4.54,6.44-14.24,2.42-7.98,5.71-15.61,5.77-24.22.02-2.71.96-5.59.78-8.13l-.68-9.96c-.7-10.32-3.45-20.38-7.9-29.6-1.31-2.72-4.3-5.03-3.64-8.04,18.4,27.25,17.74,67.47-.77,94.2Z"/><path class="cls-7" d="M304.6,171.88l.05,1.65c-8.84,8.95,2.32,22.34,8.14,25.36-7.97-1.67-15.09-7.15-17.15-14.92.5-3.17,1.47,5.57,4.48,3.17,1.06-3.51-1.17-13.08,4.49-15.25Z"/><path class="cls-15" d="M400.48,197.41c2.63-4.86,7.08-9.02,9.15-14.29,3.17-8.06,4.79-16.47,3.37-24.61-1.33-7.63-3.64-14.44-8.18-20.57-.74-.99-1.56-1.73-1.18-2.9,6.92,7.29,10.29,16.87,11.12,27.48,1.03,13.11-4.86,26.13-14.29,34.89Z"/><path class="cls-13" d="M402.17,218.6c-5.21-4.66-11.67-7.97-17.32-12.22.12-.36.7-.59.79-.95,2.28.15,12.71-5.02,14.08-7.24.18-.29.51-.56.75-.79,9.43-8.76,15.32-21.78,14.29-34.89-.83-10.6-4.2-20.19-11.12-27.48-1.69-1.78-3.13-3.8-4.78-5.99-.79-1.04-2.3-.99-2.52-2.31,6.78-.53,16.84,20.79,18.36,27.23,4.28,18.11-3.52,38.43-15.44,46.43l-7.23,4.86c-1.23.83-2.97.85-2.37,2.92.19.65,15.73,11.33,12.5,10.42Z"/><path class="cls-15" d="M352.08,200.86c11.91,5.74,17.35,5.74,29.47,12.57,7.45,4.2,15.36,7.48,22.32,13.06.42.33,1.25-.03,1.41.24l.82.82c.49.49.84,1.5,1.64,1.64.04.45,0,.79-.48.49-7.96-5.02-15.7-10.04-24.08-14.18l-9.45-4.67-31.54-11.84c-1.97-.74-3.95-1.08-4.84-2.79,5.63,1.19,10.18,4.53,14.73,4.68Z"/><path class="cls-7" d="M236.57,343.72c-.33,1.97-2.74,2.69-3.33,4.83-1.08,3.06,20.66,11.34,22.82,12.16,6.15,2.33,11.94,4.85,18.63,5.73,1.32.17,2.39,1.6,3.77,1.84l11.11,1.9,7.32,1.12c9.51,1.46,39.73.18,50.31-3.74,12.6-4.66,29.46-8.56,40.67-17.49,1.24-.99,1.92-3.66,3.51-2.22v.82c-11.38,9.08-25.26,14.14-39.32,18.85-22.55,7.55-57.35,7.49-79.33.23l-15.01-4.96c-9.77-3.22-18.85-7.34-26.8-13.31.39-2.8,2.8-5.92,5.66-5.77Z"/><path class="cls-7" d="M250.58,329.85c.72-5.9,3.7-5.49,7.62-9.82-.32,3.22-3.87,4.88-5.31,7.96-.5,1.07-1.37,1.87-2.3,1.86Z"/><path class="cls-14" d="M410.43,246.14c.73.62,1.74,1.45,2.38,2.16-.79,3.69,3.42,3.05,1.37,5.5-1.66-.64-1.87-2.71-3.02-4.28-4.76-6.52-11.33-11.26-18.23-15.5-.73.02-.96,1.76-.9,2.23-2.16-2.78-6.16-4.25-8.23-7.75-1.46-2.46-5.23-2.57-6.34-5.06l4.64,1.78c5.64,2.17,10.01,5.44,14.54,9.27l13.8,11.65Z"/><path class="cls-15" d="M249.57,329.94c-.19.9-1.21,1.51-1.45,2.36-.55,2.03-2.99,2.2-4.48,3.69-1.75,1.75-2.48,4.23-4.53,5.32-.66-.05-1.36.17-1.64.82,3.19-4.92,7.85-9.61,12.09-12.19Z"/><path class="cls-15" d="M399.72,198.2c-1.38,2.21-11.8,7.39-14.08,7.24.57-2.42,4.81-.87,10.02-5.51,1.3-1.16,2.56-1.88,4.07-1.73Z"/><path class="cls-15" d="M417.56,349.49c-.28.26-.51.58-.82.82.05-.68-.24-1.37.22-2.51,1.03.36.76,1.01.6,1.69Z"/><path class="cls-16" d="M364.36,196.98c-1.77.22-3.91.08-4.91-1.55,1.32.96,3.78.1,4.91,1.55Z"/><path class="cls-15" d="M411.97,355.3c.87-1.29,1.49-2.81,3.17-3.33-.92,1.24-1.77,2.56-3.17,3.33Z"/><path class="cls-15" d="M397.92,343.54c.57-.98,1.41-1.77,2.43-2.26-.47,1.13-1.24,1.97-2.43,2.26Z"/><path class="cls-11" d="M130.28,388.65c-.68,2.94-22.27-1.2-20.37,1.56-2.53-.25-6.13-.92-5.92-3.74l.07-.96c1.38.26,3.05.27,4.58,1.06,2.89,1.48,18.26,2.47,21.64,2.08Z"/><path class="cls-14" d="M276.77,103.12v.82c-8.32,2.16-16.61,5.4-24.12,10.26-1.48.96-2.33,2.42-4.15,3.28-3.83,1.81-6.91,4.75-10.2,6.92,1.31-3.49,5.46-4.75,8.52-6.99,4.24-3.11,7.94-6.74,13.16-8.16,1.35-.37,2.4-1.11,2.89-2.06,4.54-1.39,9.28-2.95,13.89-4.07Z"/><path class="cls-16" d="M441.3,275.83c-.2-.7,1.23,18.16.81,15.62.72,4.31,1.72,9.11.24,13.31-1.06,3-.55,5.74-1.12,8.77-2.61,13.89-8.64,26.51-16.56,37.67-1.01-2.24,1.5-3.91,2.67-5.79l4.43-7.11c13.26-21.31,12.91-66.83-2.55-89.79-.22-.5-.33-1.63.36-1.41,1.85,2.25,2.59,5.01,4.09,7.79,3.67,6.8,5.59,13.81,7.63,20.93Z"/><path class="cls-16" d="M420.92,355.77c-3.01,3.6-7.57,6.19-10.19,10.17-.46.31-.74-.32-.41-.66l9.93-9.93c.33-.33.98-.04.66.41Z"/><path class="cls-4" d="M414.18,253.8c1.31.82,1.5,3.17,2.57,4.02-.23-.19-1.03.22-.76.6,5.59,7.89,8.52,25.47,6.87,33.85-1.13-4.83.65-10.05-2.06-14.06-.95-1.4-2.5-1.6-2.65-4.06s-1.13-5.4-2.85-7.72c.07,8.83,1.39,16.52.59,24.75-1.42,14.62-8.09,26.55-17.28,37.75-6.66,8.11-14.98,13.83-23.87,19.66-7.62,5-16.21,8.04-25.33,10.49-30.42,8.18-62.31,6.87-92.1-3.9.96-2.93,3.14-1.98,4.33-4.16-.86-.98-2.18-.74-2.97-1.41l25.46,3.88,9.2.66c12.33.88,12.03-.62,22.15-.06l5.52-1.53c5.94-1.65,12.82-1.04,18.55-3.41l5.83-2.41c5.26-2.17,10.83-3.66,16-5.89s9.58-5.8,14.52-8.3c2.16-1.09,2.87-2.61,4.5-4.04,6.43-5.65,12.58-11.47,16.68-19.24,3.48-6.6,6.77-13,8.31-20.27,2.81-13.26,2-25.88-3.72-38.27-2.46-5.33-6.14-9.97-9.63-14.47-.06-.47.17-2.21.9-2.23,6.9,4.24,13.47,8.98,18.23,15.5,1.15,1.57,1.35,3.64,3.02,4.28Z"/><path class="cls-4" d="M392.91,140.32c8.67,9.8,13.64,30.95,2.47,39.44-8.24,6.26-15.21,3.59-23.53-1.47-.3-1.11,1.22-3,.43-4.02-1.62-2.07-6.29-3.81-4.39-5.38.95-.78,3.16.25,3.97-.89.61-.2,1.65-.1,2.33-.21-.12.88.72.78,1.6.88,1.1.13,1.82-.19,1.71-1.15-.03-.29-.18-.56-.68-.52,11.33-4.71,16.53-17.24,12.31-28.74,1.16.87,2.34,1.79,3.79,2.06Z"/><path class="cls-14" d="M302.15,244.72c7.9,1.32,16.92,2.97,24.37,6.54,6.75,3.24,13.09,5.66,19.36,9.53,9.12,5.62,15.95,15.15,15.62,25.8-.13,4.14-.93,7.46-2.93,10.47-1.71.51-2.73,2.35-5.1,2.08,3.19-8.51,2.98-19.96-3.84-24.13-1.08-.66-2.17-.91-2.38-2.46-.6-4.42-10.57-8.9-14.68-10.87-11.6-5.58-24.29-7.82-37.14-9.29-1.22-.14-2.3-.56-2.74-1.31-.51-.88-.86-6.1.91-6.5,4.24-.96,6.53,2.44,8.55.15Z"/><path class="cls-7" d="M302.15,244.72c-2.02,2.29-4.31-1.11-8.55-.15-1.78.4-1.43,5.62-.91,6.5.44.75,1.52,1.17,2.74,1.31,12.85,1.47,25.54,3.71,37.14,9.29,4.11,1.98,14.09,6.45,14.68,10.87-1.92.29-2.12-2.27-3.36-3.07-16.81-10.86-32.98-14.25-52.77-16.24-.94-4.97.39-5.3.39-13.42h.82c0,1.01-.09,2.22.78,2.86-.33-.24,8.76,2.73,9.04,2.05Z"/><path class="cls-7" d="M358.57,297.06c-3.19,4.8-8.48,7.55-13.86,9.16,2.23-2.53,5.02-4.7,7.06-7.83,3.99-6.12,3.3-13.99-.45-20.14-.74-1.22-1.79-1.98-1.7-3.25,6.82,4.17,7.03,15.62,3.84,24.13,2.37.28,3.39-1.57,5.1-2.08Z"/><path class="cls-7" d="M393.47,140.43l-.56-.11c-1.45-.28-2.62-1.2-3.79-2.06-.63-1.71-2.03-3.12-1.72-4.94,2.43,1.92,3.86,5,6.07,7.11Z"/><path class="cls-4" d="M292.33,239.81h-.82v-12.28c.64-.06.84.75.83,1.59l-.02,10.68Z"/><path class="cls-14" d="M374.18,167.78c.92-.15,1.77-.43,2.63-.79.5-.04.64.23.68.52.11.96-.61,1.28-1.71,1.15-.88-.1-1.72,0-1.6-.88Z"/><path class="cls-6" d="M287.42,391.24c-.14,1.03-1.37.78-2.04.88-1.34.21-2.46-.23-2.05-1.7,1.37.09,2.68.82,4.09.82Z"/><path class="cls-7" d="M239.12,341.31c2.04-1.09,2.78-3.57,4.53-5.32,1.49-1.48,3.92-1.66,4.48-3.69.33-.11.9.11.72.56l-7.04,7.07c-.86.86-1.71,1.36-2.68,1.37Z"/><path class="cls-7" d="M411.01,327.39l6.39-11.57c1.02-1.85,1.17-4.08,2.81-4.8.93.6-8.44,18.18-9.2,16.37Z"/><path class="cls-7" d="M307.88,169.42c-.23.63-.81.99-1.47.99-.11-.38.12-1.02.58-1.43.25-.23.67-.15.89.44Z"/><path class="cls-6" d="M405.28,226.72c-.16-.27-1,.1-1.41-.24-6.97-5.58-14.87-8.86-22.32-13.06.72-2.08,9.57,3.61,11.17,4.62l6,3.77c2.47,1.55,4.69,3.02,6.57,4.91Z"/><circle class="cls-10" cx="266.55" cy="367.18" r=".46"/><path class="cls-7" d="M152.36,120.31c-3.77,2.11-7.71,1.37-10.92,6.34.39,2.26,2.36,4.62,4.55,5.4-1.27,2.86-4.34,3.75-6.99,5.17-7.42,3.97-11.79,10.92-15.49,18.19-3.4,6.66-8.71,11.85-13.64,17.26l-7.87,8.63c-14.91,16.34-23.39,38.69-22.66,37.79l-2.29,2.82c-2.37,2.92-.85,7.99-2.47,11.36-.12-7.39-.09-14.89.32-22.6.48-9.18,3.22-17.38,9.06-24.6-6.77-3.66-8.07-3.24-12.57-7.25-.35-.31-.85-.59-.88.43-1.62-2.08-4.93-3.03-5.27-6.09-.25-2.27-2.31-3.91-2.87-6.54-1.38-6.46,1.58-13.23,6.96-17.29,3.67-2.77,7.43-5.79,11.47-7.89l14.81-7.71c17.19-8.95,37.45-11.67,56.76-13.41Z"/><path class="cls-14" d="M262.23,290.56c-1.9,4.82-5.02,9.2-8.37,13.1,1.46-4.28-7.71,9.08-6.55,9-.26.13-.57.65-.76.88-.1-.42-6.34,4.94-3.33,4.03-1.09,1.32-1.8,3.04-3.27,4.09-.73.52-1.35.82-1.66,1.74-1.74.4-2.62,2.33-3.99,3.1-1.84,1.02-1.49,3.08-3.1,4.24s-3.51,1.82-5.16,2.37c-8.64,5.16-16.73,10.81-26.17,15.77-22.89,12.01-48.59,16.59-74.47,18.35-3.57.24-5.35,1.02-9.24.1-6.59-1.57-14.11-.76-20.27-4.83-1.58-1.05-3.19-2.33-4.96-2.33-.49-.62-1.28-.8-1.59-1.68-.55-1.6-2.09-2.67-2.29-4.89,1.39-.64,2.95.13,4.77-1.04-5.82-10.59-8.87-22.06-7.64-33.99.1-.94,2.32-.9,2.52-.91,1.21,4.75,5.53,9.61,8.63,13.45,7.6,9.42,35.19,11.9,46.08,11.22.3.72.34,1.33-.18,1.31l-1.94-.06c-4.34-.13-5.95,4.48-8.73,6.85-12.44,10.61-.06,5.89-19.97,7.65,16.56,3.66,53.21-2.3,68.66-9.36,11.41-5.21,22.23-10.02,32.72-16.63,2.05-1.29,3.53-2.88,5.39-4.39,7.11-5.76,14.63-10.92,20.3-18.1,5.34-6.76,10.85-12.56,15.19-19.95,11.05-18.84,18.5-39.26,18.95-61.42-1.33,4.24-2.38,8.46-2.69,13.69-.32.46-1.11-.75-1.91-.68l3.04-16.18c.61-3.24,2.01-5.86,1.77-9.9l-.6-9.82c-.14-2.35.16-5.48,1.61-8.19,4.68,11.25,4.52,22.75,4.69,34.45.18,12.37-2.3,23.95-6.24,35.54-2.19,6.43-4.11,12.62-8.01,18.27-1.16,1.68-.69,3.81-1.21,5.13Z"/><path class="cls-15" d="M239.94,321.66c1.48-1.05,2.18-2.77,3.27-4.09l3.33-4.03c.19-.23.5-.75.76-.88,1.47-.74,3.91-5.93,6.55-9,3.35-3.9,6.47-8.28,8.37-13.1,2.33-2.65,2.86-6.62,4.84-9.68,2.77-4.29,3.96-8.5,5.64-13.38,10.29-29.91,8.73-62.95-6.12-90.92-2.64-4.97-4.79-9.52-8.55-12.96-5.33-4.88-9.46-12.39-13.25-15.26-7.01-5.31-13.7-9.71-21.28-14.28-13.71-8.27-29.82-12.01-46.15-13.28-8.33-.65-16.95-1.21-24.99-.48-19.31,1.74-39.57,4.47-56.76,13.41l-14.81,7.71c-4.03,2.1-7.8,5.12-11.47,7.89-5.38,4.06-8.35,10.84-6.96,17.29.57,2.64,2.62,4.28,2.87,6.54-1.7.62-1.96-1.74-2.81-2.9-6.59-8.98,2.61-19.12,9.65-24.65,5.76-4.53,12.22-7.24,18.53-10.9,8.06-4.69,16.88-6.83,25.85-9.37,3.32-.94,6.18-2.18,9.7-2.69l24.81-3.66c10.1-1.49,29.76.16,40.66,2.2,12.76,2.39,24.92,6.22,35.6,13.49,7.52,5.12,15.38,9.32,21.46,16.17l9.61,10.83c5.13,5.79,12.71,18.86,15.15,26.52l4.3,13.5c2.49,7.81,2.22,19.4,3.05,21.07,2.28,4.6-.23,10.39-.41,15.16-.46,11.87-3.57,24.85-8.24,35.89l-2.68,6.33c-1.01,2.39-2.59,4.44-3.62,6.89-2.67,6.38-6.1,11.99-10.38,17.43-1.22,1.56-1.34,3.79-3.88,4.23,1.05,2.95-1.54,3.6-2.99,5.19-1.03,1.12-7.5,8.62-8.65,7.8Z"/><path class="cls-15" d="M74.57,233.27c.12,7.36-.49,15.1.41,22.62.43,3.57-.39,5.62-.41,8.6l-.12,13c0,.81.53,1.72.96,1.62,0,4.67-.13,9.42.25,14.41l1.85,24.37.74,9.06c.63,7.7,3.64,28.4,11.07,31.56.3.88,1.09,1.06,1.59,1.68,2.88,3.63,7.05,5.02,11.67,6.45,2.52.78,4.72,1.94,7.54,2.17,10.72.88,21.17.66,31.68-1.27,18.21-3.35,36.15-6.69,53.02-14.76,9.62-4.6,10.13-5.42,18.89-10.67l6.12-3.66c2.46-1.47,5.07-2.76,6.19-5.31,1.66-.56,3.62-1.26,5.16-2.37-1.58,2.76-4.65,4.03-7.25,6.08-5.41,4.26-10.92,7.72-17.29,10.51-2,.88-3.21,3.87-5.26,4.33-2.59.58-7.17,3.61-11.79,5.25l-12.92,4.59c-2.23.79-4.56.94-6.45,1.72-10.7,4.44-7.79-.09-15.76,4.6-2.34,1.37-5.67.21-8.28,1.11-3.28,1.12-7.5.73-10.94,1.28l-5.15.83c-3.61.58-28.48.26-30.48-4.03-.68.75-.92.92-1.08.67-2.93-4.45.7,1.29-5.85-4.2-3.96-3.32-7.18-6.51-9.83-10.88-1.74-2.87-4.76-12.56-5.13-16.82l-1.22-14.09-1.45-12.43-.35-9.87-.65-13.74-.93-35.22c-.3-11.58-.94-22.84,0-34.3l.76-9.18c.92-11.16,4.06-12.02,8.03-21.16-4.85-.95-8.74-3.09-11.44-6.57.02-1.02.53-.74.88-.43,4.5,4.01,5.79,3.59,12.57,7.25-5.84,7.23-8.58,15.43-9.06,24.6-.4,7.71-.44,15.21-.32,22.6Z"/><path class="cls-15" d="M217.02,363.41c-1.03-.15-1.7,1.55-2.46,1.64-2.04.25-3.36,1.94-5.28,2.88-9.08,4.45-18.58,8.44-28.28,10.21.42-.83,1.38-1.2,2.52-1.57,7.04-2.29,13.85-4.26,20.65-7.48,4.3-2.04,8.21-5.58,12.85-5.69Z"/><path class="cls-15" d="M258.22,318.39c.11-.69.34-2.03,1.12-2.58,2.46-1.76,1.86-4.64,3.18-6.74s3.67-3.46,4.6-6.09,1.99-5.22,4.17-6.45c-.94,4.44-4.29,7.98-6.51,12.22-1.88,3.59-3.83,7.12-6.56,9.64Z"/><path class="cls-15" d="M180.19,378.14c-1.81,1.96-4.77,2.42-7.37,2.46,1.86-1.92,4.76-2.45,7.37-2.46Z"/><path class="cls-15" d="M234.29,326.51c1.38-.77,2.25-2.71,3.99-3.1-.49,1.45-2.48,4.17-3.99,3.1Z"/><path class="cls-4" d="M141.4,342.35c17.66-1.1,35.85-4.9,51.7-13.31,10.44-5.54,20.78-10.32,29.24-18.34,6.11-5.8,12.29-11.21,17.5-17.66,12.81-15.86,15.22-20.98,23.62-39.44,1.15-2.53,3.2-9.58,3.72-12.35.8-.06,1.59,1.14,1.91.68.31-5.23,1.36-9.45,2.69-13.69-.45,22.17-7.9,42.58-18.95,61.42-4.33,7.39-9.85,13.19-15.19,19.95-5.67,7.18-13.2,12.34-20.3,18.1-1.86,1.51-3.34,3.09-5.39,4.39-10.5,6.61-21.31,11.42-32.72,16.63-15.45,7.06-52.1,13.02-68.66,9.36,19.91-1.76,7.53,2.96,19.97-7.65,2.78-2.37,4.39-6.98,8.73-6.85l1.94.06c.52.02.48-.59.18-1.31ZM144.69,343.35c0-.29-.23-.52-.52-.52s-.52.23-.52.52.23.52.52.52.52-.23.52-.52Z"/><path class="cls-7" d="M86.69,317.67c-.2,0-2.42-.03-2.52.91-1.23,11.93,1.82,23.4,7.64,33.99-1.82,1.17-3.38.4-4.77,1.04.2,2.21,1.74,3.29,2.29,4.89-7.43-3.17-10.44-23.86-11.07-31.56l-.74-9.06-1.85-24.37c-.38-4.99-.25-9.74-.25-14.41v-4.91c.3-.08.81.34.78.85-.24,3.47,1.21,6.16,2.02,9.33l8.48,33.31Z"/><path class="cls-7" d="M262.23,290.56c.52-1.32.06-3.45,1.21-5.13,3.9-5.66,5.82-11.84,8.01-18.27,3.94-11.59,6.42-23.18,6.24-35.54-.17-11.71,0-23.21-4.69-34.45-1.45,2.72-1.75,5.84-1.61,8.19l.6,9.82c.25,4.04-1.16,6.66-1.77,9.9.52-24.66.29-38.1-12.3-60.49-1.15-.31-.72-1,.11-.98,3.75,3.44,5.91,7.98,8.55,12.96,14.86,27.97,16.41,61.02,6.12,90.92-1.68,4.89-2.86,9.09-5.64,13.38-1.98,3.06-2.51,7.03-4.84,9.68ZM272.68,196.02c0-.23-.18-.41-.41-.41s-.41.18-.41.41.18.41.41.41.41-.18.41-.41Z"/><path class="cls-7" d="M90.92,360.18c1.77,0,3.37,1.29,4.96,2.33,6.16,4.07,13.68,3.26,20.27,4.83,3.89.92,5.66.15,9.24-.1,25.88-1.76,51.58-6.34,74.47-18.35,9.44-4.95,17.54-10.61,26.17-15.77-1.12,2.55-3.73,3.84-6.19,5.31l-6.12,3.66c-8.76,5.24-9.27,6.07-18.89,10.67-16.87,8.06-34.8,11.41-53.02,14.76-10.51,1.93-20.96,2.15-31.68,1.27-2.81-.23-5.02-1.39-7.54-2.17-4.62-1.43-8.79-2.83-11.67-6.45Z"/><path class="cls-7" d="M253.86,303.66c-2.64,3.07-5.07,8.26-6.55,9-1.16.08,8.01-13.29,6.55-9Z"/><path class="cls-7" d="M243.21,317.57c-3.01.91,3.23-4.45,3.33-4.03l-3.33,4.03Z"/><path class="cls-16" d="M75.41,274.19v4.91c-.42.1-.97-.81-.96-1.62l.12-13c.46-.35.77.15.78.76l.06,8.94Z"/><path class="cls-14" d="M217.64,240.44c-2.33-.16-2.22-10.78-2.32-12.92-.23-4.73-2.39-8.85-3.94-13.18-1.8-5.04-3.91-10.11-8.11-13.03-.83-.57-1.2-.76-1.8-1.61.75.2,1.24-.91.68-1.34-1.07-.83-2.22-.87-3.13-1.11-.88-.52-.77-.93-1.31-1.64-5.57-7.21-17.02-12.21-26.65-13.58l-11.29-1.61-12.04,1.27-8.2,1.09c-.04,3.06-.82,24.94-.74,25.29.65,3.19.3,6.38.72,9.6,1.3,9.91-.65,24.29.12,31.73l1.28,12.49c1.49,14.51-.57,29,1.01,43.18-2.63,2.95-6.43,5.07-9.95,7.65.31-3.36-.54-6.05-.6-9.17l-.68-34.6-.82-32.74-.78-30.29c-.25-9.66-.19-19.04-.39-28.67l16.4-2.88c16.46-2.89,33.51.04,47.92,8.27,6.56,3.75,11.04,8.39,15.37,14.37,9.13,12.62,12.32,28.45,9.27,43.43Z"/><path class="cls-15" d="M197.7,195.61c.54.7.44,1.12,1.31,1.64.82.48,1.9,1.67,2.46,2.46.6.84.97,1.03,1.8,1.61-.26,2.29,1.84,3.24,3.09,5.02,1.87,2.67,2.63,5.93,3.98,9.1,4.89,11.5,5.21,24.43,3.37,36.66-1.79,11.95-9.38,23.2-17.86,31.78-3.22,3.26-6.95,5.08-10.01,7.38.32-1.88,2.43-3.5,4.27-4.56,3.71-2.13,5.74-5.25,8.52-7.77,5.8-5.25,10.95-15.04,11.71-21.29.41-3.38,2.09-6.6,2.16-10.1.12-6.24-.49-12.66.24-18.73-1.37-3.23-1.48-6.17-2.41-9.22-6.64-21.73-23.73-33.6-46.33-35.28-10.34-.77-11.42.68-22.05,1.05l.46,7.65c.22,3.63-.38,6.63-.21,10.21.46,9.45,1.15,18.88.86,28.41-.18,5.94-.93,11.28.1,17.21.5,2.9,1.25,22.73.81,24.45-.93,3.62-.64,6.56-.13,10.15.79,5.56.25,11.24.76,17.26,7.57,4.85,33.04-4.76,41.24-9.45-6.26,4.71-5.04,4.51-15.72,8.17-5.49,1.88-18.69,5.12-23.49,4.19-1-.19-3.74-.45-3.76-1.68l-.42-25.24c-.15-8.86-.94-17.34-.72-26.23s-.58-16.77-.69-25.36l-.33-26.23c-.06-5.02-1.08-9.56-.49-14.55,10.95-2.68,32.56-2.88,42.02,2.05l8.62,4.49c2.56,1.33,3.82,4.63,6.85,4.76Z"/><path class="cls-7" d="M197.7,195.61c-3.03-.14-4.29-3.43-6.85-4.76l-8.62-4.49c-9.46-4.93-31.07-4.72-42.02-2.05-.6,5,.42,9.54.49,14.55l.33,26.23c.11,8.59.9,16.77.69,25.36s.58,17.37.72,26.23l.42,25.24c.02,1.23,2.77,1.49,3.76,1.68-.73,1.91-3.22,1.37-4.74,1.48-1.57-14.18.48-28.67-1.01-43.18l-1.28-12.49c-.76-7.44,1.18-21.82-.12-31.73-.42-3.22-.07-6.41-.72-9.6-.07-.35.7-22.24.74-25.29l8.2-1.09,12.04-1.27,11.29,1.61c9.63,1.37,21.08,6.37,26.65,13.58Z"/><path class="cls-7" d="M217.64,240.44c-.81,3.97-.95,8.59-3.93,11.65,1.83-12.23,1.52-25.15-3.37-36.66-1.35-3.17-2.11-6.43-3.98-9.1-1.24-1.78-3.35-2.72-3.09-5.02,4.2,2.92,6.31,7.99,8.11,13.03,1.55,4.33,3.71,8.46,3.94,13.18.1,2.14,0,12.76,2.32,12.92Z"/><circle class="cls-14" cx="144.17" cy="343.35" r=".52"/><circle class="cls-14" cx="272.27" cy="196.02" r=".41"/><path class="cls-7" d="M201.47,199.71c-.55-.78-1.63-1.97-2.46-2.46.91.24,2.06.28,3.13,1.11.56.43.07,1.54-.68,1.34Z"/><path class="cls-10" d="M185.84,291.25c-8.2,4.69-33.66,14.3-41.24,9.45-.51-6.03.03-11.7-.76-17.26-.51-3.59-.79-6.53.13-10.15.44-1.72-.3-21.56-.81-24.45-1.03-5.93-.28-11.27-.1-17.21.29-9.53-.4-18.96-.86-28.41-.17-3.58.43-6.58.21-10.21l-.46-7.65c10.64-.37,11.71-1.82,22.05-1.05,22.6,1.69,39.69,13.56,46.33,35.28.93,3.06,1.04,5.99,2.41,9.22-.73,6.07-.11,12.49-.24,18.73-.07,3.51-1.75,6.72-2.16,10.1-.76,6.25-5.92,16.04-11.71,21.29-2.78,2.52-4.82,5.64-8.52,7.77-1.84,1.06-3.96,2.68-4.27,4.56ZM192.53,270.77c11.1-14.62,14.14-39.97,6.75-51.74l-5.67-9.03c-10.39-9.18-26.58-11.94-40.66-10.99l.43,36.73,1.63,55.23c3.6.68,6.18-1.05,9.33-2.08,10.82-3.53,21.1-8.78,28.2-18.13Z"/><path class="cls-5" d="M192.53,270.77c-7.1,9.36-17.38,14.6-28.2,18.13-3.14,1.03-5.73,2.76-9.33,2.08l-1.63-55.23-.43-36.73c14.08-.96,30.27,1.81,40.66,10.99l5.67,9.03c7.4,11.77,4.35,37.12-6.75,51.74Z"/></g></svg>